<svg width="322" height="231" viewBox="0 0 322 231" fill="none" xmlns="http://www.w3.org/2000/svg">
<path d="M62.0492 14.2241H17.1848V88.2264H62.0492V14.2241Z" fill="#E0E0E0"/>
<path d="M59.7997 14.2241H14.9353V88.2264H59.7997V14.2241Z" fill="#F5F5F5"/>
<path d="M54.2295 22.2377H20.5103V80.2074H54.2295V22.2377Z" fill="white"/>
<path d="M54.2295 80.2129C54.2295 80.2129 54.2295 80.1128 54.2295 79.9291C54.2295 79.7455 54.2295 79.4617 54.2295 79.1055C54.2295 78.3765 54.2295 77.3081 54.2295 75.928C54.2295 73.1455 54.2295 69.0998 54.1953 63.9856C54.1953 53.7629 54.166 39.283 54.1415 22.2487L54.254 22.3767H20.5397L20.6619 22.2376C20.6619 44.1077 20.6619 64.2695 20.6619 80.2129L20.5641 80.1017L45.109 80.1573L51.887 80.1851H53.6671H54.2833H53.6867H51.9261H45.1676L20.5641 80.2408H20.4663V80.1295C20.4663 64.186 20.4663 44.0243 20.4663 22.1541V22.015H20.5935H54.3078H54.4202V22.2432C54.4202 39.3275 54.3762 53.8297 54.3665 64.0747C54.3665 69.1777 54.342 73.2123 54.3322 75.9836C54.3322 77.3581 54.3322 78.4155 54.3322 79.1389C54.3322 79.4895 54.3322 79.7622 54.3322 79.9458C54.3322 80.1295 54.2295 80.2129 54.2295 80.2129Z" fill="#E0E0E0"/>
<path d="M59.9318 14.2241C59.6999 14.6973 59.4315 15.1461 59.1298 15.5653C58.6114 16.3555 57.8681 17.4351 57.0269 18.6037C56.1858 19.7723 55.3935 20.8019 54.8067 21.5364C54.5118 21.9514 54.1844 22.3351 53.8286 22.6828C54.0819 22.2314 54.3682 21.8051 54.6844 21.4084L56.846 18.4256L58.9978 15.4261C59.2786 14.9961 59.5911 14.594 59.9318 14.2241Z" fill="#E0E0E0"/>
<path d="M54.4006 80.0238C56.075 83.0483 58.0436 85.8484 60.2691 88.3712L54.4006 80.0238Z" fill="white"/>
<path d="M60.2838 88.3934C59.9075 88.0841 59.563 87.7276 59.2568 87.3305C58.4749 86.426 57.7339 85.4769 57.0366 84.4869C56.2248 83.3238 55.545 82.2164 55.0804 81.3983C54.8132 80.9668 54.5839 80.5064 54.3958 80.0238C54.6982 80.4211 54.9745 80.8434 55.2222 81.287C55.7113 82.0773 56.4155 83.1569 57.2224 84.3088C58.0293 85.4607 58.8118 86.4735 59.3791 87.197C59.7054 87.5707 60.0078 87.9705 60.2838 88.3934Z" fill="#E0E0E0"/>
<path d="M14.9304 88.1652L20.7989 79.918L14.9304 88.1652Z" fill="white"/>
<path d="M20.8087 79.918C19.9235 81.3763 18.9735 82.7824 17.9625 84.1306C17.0163 85.5366 16.0042 86.8834 14.9304 88.1652C15.8156 86.7068 16.7655 85.3008 17.7766 83.9525C18.7228 82.5466 19.7349 81.1998 20.8087 79.918Z" fill="#E0E0E0"/>
<path d="M14.9353 14.2241C15.9491 15.4623 16.9025 16.7627 17.7913 18.1196C18.7431 19.415 19.6313 20.7694 20.4517 22.1764C19.4396 20.938 18.4878 19.6376 17.6006 18.2809C16.6475 16.9853 15.7577 15.631 14.9353 14.2241Z" fill="#E0E0E0"/>
<path d="M43.7249 34.0074H32.433V70.4855H43.7249V34.0074Z" fill="#E0E0E0"/>
<path d="M122.538 3.43933V35.8494H81.6352L80.1632 3.66749L122.538 3.43933Z" fill="#E0E0E0"/>
<path d="M80.1583 3.66751V35.7771H121.062V3.66751H80.1583Z" fill="white"/>
<path d="M121.257 35.9997H79.9677V3.44495H121.257V35.9997ZM80.3589 35.5601H120.871V3.87901H80.3589V35.5601Z" fill="#E0E0E0"/>
<path d="M116.636 7.65759H84.594V31.7871H116.636V7.65759Z" fill="white"/>
<path d="M116.636 7.65761H116.019H114.259H107.657L84.5939 7.77448L84.6868 7.66874C84.6868 15.0423 84.6868 23.2116 84.6868 31.7982L84.589 31.6869H116.631L116.548 31.776C116.548 24.4358 116.582 18.4202 116.592 14.2187C116.592 12.1262 116.592 10.4902 116.592 9.36605C116.592 8.80955 116.592 8.38662 116.592 8.09168C116.592 7.79674 116.592 7.64648 116.592 7.64648C116.592 7.64648 116.592 7.78561 116.592 8.06942C116.592 8.35323 116.592 8.78173 116.592 9.32709C116.592 10.4401 116.592 12.0762 116.616 14.163C116.616 18.3701 116.641 24.4136 116.655 31.776V31.8706H116.577H84.5352H84.4325V31.7537C84.4325 23.167 84.4325 14.9977 84.4325 7.62422V7.55188H84.5254L107.652 7.60196L114.235 7.63535H115.975H116.567L116.636 7.65761Z" fill="#E0E0E0"/>
<path d="M80.1632 3.57837C80.416 3.7167 80.6526 3.89057 80.8674 4.09591C81.2831 4.44093 81.8455 4.93064 82.4715 5.48714C83.0974 6.04363 83.6256 6.60012 84.0071 6.97297C84.2253 7.17454 84.4222 7.40424 84.5939 7.65746C83.8147 7.03742 83.0639 6.37247 82.3443 5.66521C81.5791 5.02293 80.8506 4.32591 80.1632 3.57837Z" fill="#E0E0E0"/>
<path d="M121.066 3.66748C120.394 4.42055 119.675 5.11794 118.915 5.75433C118.195 6.44895 117.434 7.08493 116.636 7.65753C117.308 6.90446 118.027 6.20707 118.788 5.57068C119.506 4.87457 120.267 4.23851 121.066 3.66748Z" fill="#E0E0E0"/>
<path d="M121.032 35.7826L116.469 31.5756L121.032 35.7826Z" fill="white"/>
<path d="M116.469 31.5756C117.29 32.1877 118.074 32.8607 118.817 33.5901C119.598 34.2636 120.338 34.9961 121.032 35.7826C120.211 35.1741 119.428 34.5009 118.69 33.7681C117.905 33.0974 117.163 32.3647 116.469 31.5756Z" fill="#E0E0E0"/>
<path d="M80.1632 35.7772C80.8277 35.0333 81.5387 34.3452 82.2905 33.7182C83.002 33.0296 83.7553 32.3992 84.545 31.8317C83.8826 32.5798 83.1715 33.27 82.4177 33.8963C81.707 34.5842 80.9535 35.2128 80.1632 35.7772Z" fill="#E0E0E0"/>
<path d="M91.0981 15.1758V23.2561H111.261V15.1758L91.0981 15.1758Z" fill="#E0E0E0"/>
<path d="M289.183 148.661C289.183 148.661 285.51 146.714 282.63 156.508C279.75 166.302 278.894 171.817 278.894 171.817C278.894 171.817 278.067 173.91 276.752 172.858C275.436 171.806 273.397 168.539 271.524 169.519C269.651 170.498 269.25 173.214 270.135 176.937C271.02 180.66 272.698 188.89 272.844 189.636C272.991 190.382 272.761 191.523 271.768 190.972C270.776 190.421 264.702 184.717 262.477 188.15C260.252 191.584 264.232 201.506 264.648 202.586C265.064 203.665 264.932 204.199 264.492 204.561C264.051 204.923 262.178 202.786 260.393 201.222C258.608 199.658 256.305 198.25 255.175 200.354C254.046 202.458 254.633 210.299 262.785 221.807L266.868 226.854L272.8 225.457C285.334 221.59 289.853 215.635 290.024 213.176C290.195 210.716 287.579 210.338 285.354 210.393C283.129 210.449 280.493 210.922 280.327 210.332C280.16 209.742 280.327 209.219 281.217 208.662C282.107 208.106 290.435 202.68 290.425 198.423C290.415 194.166 282.557 194.733 281.466 194.528C280.376 194.322 280.786 193.22 281.28 192.725C281.774 192.229 287.388 186.675 290.024 184.255C292.66 181.834 293.785 179.435 292.729 177.326C291.672 175.217 288.376 176.57 286.772 176.542C285.168 176.514 285.574 174.266 285.574 174.266C285.574 174.266 287.726 169.257 290.464 159.38C293.203 149.502 289.105 148.65 289.105 148.65" fill="#EBEBEB"/>
<path d="M266.096 228.251C268.12 221.017 271.905 208.245 275.109 197.254C278.312 186.264 281.202 176.319 283.261 169.107C284.283 165.501 285.109 162.585 285.706 160.559C285.995 159.558 286.195 158.773 286.371 158.233C286.446 157.977 286.505 157.777 286.547 157.632C286.586 157.493 286.611 157.426 286.611 157.426C286.611 157.426 286.611 157.499 286.562 157.638C286.513 157.777 286.474 157.983 286.405 158.244C286.259 158.801 286.048 159.574 285.774 160.582C285.227 162.613 284.42 165.54 283.403 169.152C281.378 176.386 278.512 186.336 275.309 197.321C272.106 208.306 268.296 221.083 266.237 228.296" fill="#E0E0E0"/>
<path d="M274.219 174.21C274.3 174.347 274.37 174.493 274.429 174.644C274.556 174.928 274.727 175.351 274.918 175.869C275.334 176.909 275.896 178.362 276.439 179.975C276.982 181.589 277.495 183.008 277.906 184.11C278.077 184.605 278.229 185.028 278.346 185.362C278.413 185.51 278.462 185.667 278.493 185.83C278.411 185.692 278.341 185.547 278.282 185.396C278.155 185.112 277.984 184.695 277.793 184.171C277.387 183.125 276.864 181.667 276.297 180.053C275.73 178.44 275.221 177.026 274.83 175.93L274.38 174.678C274.309 174.53 274.255 174.373 274.219 174.21Z" fill="#E0E0E0"/>
<path d="M279.065 185.852C279.04 185.796 281.623 184.405 284.831 182.736C288.039 181.066 290.65 179.764 290.699 179.82C290.748 179.875 288.137 181.266 284.928 182.93C281.72 184.594 279.065 185.913 279.065 185.852Z" fill="#E0E0E0"/>
<path d="M273.46 202.48C273.603 202.427 273.751 202.394 273.901 202.38L275.099 202.179C276.106 202.012 277.505 201.773 279.035 201.439C280.566 201.105 281.94 200.766 282.948 200.499L284.126 200.193C284.269 200.142 284.417 200.112 284.567 200.104C284.431 200.174 284.29 200.23 284.146 200.271C283.872 200.365 283.476 200.499 282.982 200.649C282.004 200.95 280.615 201.322 279.07 201.651C277.524 201.979 276.135 202.207 275.113 202.33C274.624 202.396 274.194 202.441 273.905 202.463C273.758 202.483 273.609 202.489 273.46 202.48Z" fill="#E0E0E0"/>
<path d="M267.054 193.036C267.16 193.136 267.255 193.25 267.338 193.376L268.057 194.355C268.658 195.184 269.475 196.342 270.37 197.627C271.265 198.913 272.072 200.081 272.644 200.938L273.314 201.957C273.402 202.078 273.479 202.208 273.544 202.346C273.436 202.248 273.341 202.134 273.26 202.007L272.541 201.033C271.94 200.198 271.123 199.046 270.223 197.761C269.323 196.475 268.526 195.301 267.954 194.45L267.284 193.431C267.194 193.31 267.117 193.178 267.054 193.036Z" fill="#E0E0E0"/>
<path d="M260.481 206.999C260.614 207.13 260.733 207.278 260.838 207.438C261.083 207.761 261.391 208.184 261.763 208.685C262.54 209.742 263.597 211.217 264.761 212.853C265.924 214.489 266.966 215.975 267.695 217.06L268.575 218.345C268.687 218.5 268.787 218.666 268.873 218.841C268.744 218.705 268.625 218.558 268.516 218.401L267.592 217.155C266.819 216.092 265.758 214.622 264.594 212.986C263.43 211.35 262.389 209.864 261.66 208.779C261.308 208.262 261.01 207.828 260.785 207.488C260.67 207.337 260.568 207.173 260.481 206.999Z" fill="#E0E0E0"/>
<path d="M268.795 218.49C268.974 218.428 269.157 218.382 269.343 218.351L270.854 218.039C272.13 217.772 273.891 217.394 275.823 216.926C277.754 216.459 279.495 215.969 280.752 215.608L282.244 215.185C282.424 215.123 282.609 215.079 282.796 215.051C282.625 215.14 282.446 215.211 282.263 215.262C281.916 215.385 281.412 215.557 280.796 215.752C279.544 216.153 277.808 216.659 275.871 217.132C273.935 217.605 272.169 217.967 270.888 218.195C270.248 218.312 269.724 218.396 269.367 218.446C269.178 218.481 268.987 218.496 268.795 218.49Z" fill="#E0E0E0"/>
<path d="M300.094 228.051C300.094 228.129 232.905 228.195 150.047 228.195C67.189 228.195 0 228.145 0 228.051C0 227.956 67.1743 227.906 150.066 227.906C232.958 227.906 300.094 227.973 300.094 228.051Z" fill="#263238"/>
<path d="M208.328 34.3883L203.675 38.917L209.886 47.1811L214.54 42.6524L208.328 34.3883Z" fill="#263238"/>
<path d="M212.35 33.7458L202.775 43.106L196.06 34.2021C198.701 29.9839 201.851 26.8008 205.621 24.8419L212.35 33.7458Z" fill="#455A64"/>
<path d="M204.389 41.5367C204.335 41.5923 202.716 39.5667 200.77 37.0235C198.823 34.4804 197.288 32.3768 197.346 32.3212C197.405 32.2655 199.019 34.2912 200.965 36.8343C202.912 39.3775 204.442 41.4866 204.389 41.5367Z" fill="#263238"/>
<path d="M206.198 39.7561C205.811 39.3277 205.452 38.8684 205.122 38.3816C204.477 37.519 203.601 36.3226 202.638 34.987L200.193 31.559L199.459 30.5183C199.283 30.2624 199.19 30.1455 199.19 30.1288C199.288 30.0286 200.916 32.1377 202.843 34.8033C203.821 36.1389 204.663 37.3576 205.288 38.2536C205.63 38.723 205.934 39.2258 206.198 39.7561Z" fill="#263238"/>
<path d="M208.643 37.3798C208.25 36.9528 207.886 36.4934 207.553 36.0053C206.902 35.1316 206.022 33.9128 205.054 32.5606L202.608 29.0769L201.875 28.014C201.78 27.8873 201.695 27.7514 201.621 27.6078C202.041 28.0028 202.418 28.453 202.745 28.9489C203.406 29.8115 204.296 31.0246 205.259 32.3769C206.222 33.7292 207.088 34.9702 207.704 35.8773C208.054 36.3472 208.368 36.8498 208.643 37.3798Z" fill="#263238"/>
<path d="M210.849 35.1538C210.795 35.2039 209.186 33.1615 207.254 30.5905C205.323 28.0195 203.807 25.8882 203.861 25.8325C203.914 25.7769 205.518 27.8248 207.45 30.4013C209.382 32.9779 210.903 35.1037 210.849 35.1538Z" fill="#263238"/>
<path d="M290.272 40.0137L286.042 34.9766L279.133 42.4891L283.363 47.5262L290.272 40.0137Z" fill="#263238"/>
<path d="M290.474 44.9704L281.759 34.5918L289.207 26.4949C293.042 29.2773 296.005 32.6886 297.917 36.8734L290.474 44.9704Z" fill="#455A64"/>
<path d="M283.217 36.3336C283.168 36.2724 284.855 34.3247 286.987 31.9819C289.119 29.639 290.9 27.7859 290.934 27.8416C290.968 27.8972 289.295 29.8449 287.163 32.1933C285.031 34.5417 283.266 36.3893 283.217 36.3336Z" fill="#263238"/>
<path d="M284.879 38.3091C285.227 37.8418 285.606 37.4064 286.014 37.0069C286.733 36.2278 287.74 35.1649 288.86 33.9963L291.741 31.0302L292.616 30.1398C292.826 29.9283 292.929 29.8226 292.944 29.817C293.037 29.9228 291.271 31.8872 289.031 34.2133C287.911 35.3764 286.884 36.4393 286.131 37.1571C285.741 37.578 285.323 37.9631 284.879 38.3091Z" fill="#263238"/>
<path d="M287.09 40.9414C287.442 40.4697 287.826 40.0305 288.239 39.6281C288.968 38.8434 289.99 37.7749 291.129 36.6063L294.064 33.6346L294.958 32.7443C295.068 32.6336 295.182 32.5296 295.301 32.4326C294.977 32.932 294.603 33.3859 294.186 33.7849C293.462 34.5807 292.44 35.6547 291.305 36.8233C290.171 37.992 289.124 39.0493 288.371 39.7839C287.971 40.2066 287.542 40.5936 287.09 40.9414Z" fill="#263238"/>
<path d="M289.159 43.3397C289.11 43.2785 290.821 41.3474 292.978 39.0157C295.135 36.684 296.925 34.8476 296.973 34.9088C297.022 34.97 295.311 36.9011 293.154 39.2272C290.997 41.5533 289.208 43.3898 289.159 43.3397Z" fill="#263238"/>
<path d="M251.229 15.9659H243.981V28.8376H251.229V15.9659Z" fill="#263238"/>
<path d="M255.102 19.8168H240.186V5.94347C245.414 4.47433 250.402 4.38529 255.117 5.94347L255.102 19.8168Z" fill="#FF725E"/>
<path d="M255.293 5.99917C255.118 6.12356 254.933 6.22795 254.74 6.31081C254.229 6.56672 253.705 6.78603 253.17 6.96747C252.369 7.24828 251.552 7.46766 250.725 7.62413C249.72 7.80556 248.705 7.90229 247.688 7.9135C246.672 7.91522 245.656 7.82965 244.651 7.65752C243.825 7.51162 243.008 7.30151 242.206 7.02868C241.671 6.85041 241.145 6.63672 240.631 6.38871C240.437 6.31209 240.252 6.20934 240.079 6.08264C240.079 6.03256 240.9 6.41654 242.255 6.82834C243.05 7.06743 243.857 7.25325 244.671 7.38483C245.666 7.53806 246.669 7.61614 247.673 7.61856C248.678 7.60556 249.682 7.51632 250.676 7.35145C251.487 7.21802 252.29 7.03222 253.082 6.79495C254.471 6.3442 255.273 5.94909 255.293 5.99917Z" fill="#263238"/>
<path d="M245.116 19.7779C245.047 19.7779 244.989 17.1123 244.989 13.829C244.989 10.5457 245.047 7.88013 245.116 7.88013C245.184 7.88013 245.243 10.5402 245.243 13.829C245.243 17.1179 245.189 19.7779 245.116 19.7779Z" fill="#263238"/>
<path d="M247.957 19.8557C247.889 19.8557 247.83 17.179 247.83 13.879C247.83 10.579 247.889 7.90784 247.957 7.90784C248.025 7.90784 248.084 10.579 248.084 13.879C248.084 17.179 248.03 19.8557 247.957 19.8557Z" fill="#263238"/>
<path d="M250.798 19.8057C250.73 19.8057 250.671 17.129 250.671 13.829C250.671 10.529 250.73 7.85229 250.798 7.85229C250.867 7.85229 250.925 10.529 250.925 13.829C250.925 17.129 250.872 19.8057 250.798 19.8057Z" fill="#263238"/>
<path d="M253.146 19.8058C253.072 19.8058 253.019 16.912 253.019 13.3449C253.019 9.77779 253.072 6.88403 253.146 6.88403C253.219 6.88403 253.273 9.77779 253.273 13.3449C253.273 16.912 253.234 19.8058 253.146 19.8058Z" fill="#263238"/>
<path d="M242.431 19.7223C242.362 19.7223 242.304 16.8285 242.304 13.2614C242.304 9.6943 242.362 6.80054 242.431 6.80054C242.499 6.80054 242.558 9.6943 242.558 13.2614C242.558 16.8285 242.504 19.7223 242.431 19.7223Z" fill="#263238"/>
<path d="M284.017 127.293C304.611 103.859 304.611 65.8649 284.017 42.4309C263.424 18.9969 230.035 18.9969 209.441 42.4309C188.848 65.8649 188.848 103.859 209.441 127.293C230.035 150.727 263.424 150.727 284.017 127.293Z" fill="#FF725E"/>
<path d="M246.73 134.783C271.189 134.783 291.017 112.22 291.017 84.3866C291.017 56.5537 271.189 33.9907 246.73 33.9907C222.27 33.9907 202.442 56.5537 202.442 84.3866C202.442 112.22 222.27 134.783 246.73 134.783Z" fill="#FAFAFA"/>
<path d="M291.017 84.3867C291.017 84.3867 291.017 84.114 290.983 83.5742C290.948 83.0344 290.983 82.2275 290.89 81.1757C290.715 78.107 290.293 75.0632 289.628 72.0826C289.149 69.9314 288.543 67.8193 287.814 65.7609C286.957 63.3067 285.927 60.9357 284.733 58.6712C281.812 53.1389 277.995 48.2876 273.485 44.3749C268.011 39.6356 261.638 36.4188 254.877 34.9813C249.146 33.7814 243.265 33.8589 237.56 35.2095C235.557 35.7043 233.583 36.3456 231.652 37.1294C223.436 40.5353 216.289 46.6328 211.113 54.6533C209.762 56.742 208.559 58.9488 207.514 61.2533C206.971 62.4052 206.506 63.6017 206.046 64.8037C205.587 66.0057 205.176 67.2523 204.829 68.5211C204.078 71.0602 203.515 73.6662 203.146 76.312C202.775 78.9869 202.581 81.6898 202.564 84.3978C202.582 87.1074 202.775 89.8119 203.142 92.4892C203.516 95.1337 204.079 97.7392 204.824 100.28C205.176 101.543 205.616 102.768 206.042 103.992C206.467 105.216 206.981 106.396 207.509 107.548C208.554 109.854 209.759 112.061 211.113 114.148C216.288 122.171 223.435 128.271 231.652 131.677C233.583 132.461 235.557 133.102 237.56 133.597C239.513 134.062 241.492 134.376 243.482 134.538C247.292 134.865 251.122 134.626 254.877 133.825C261.638 132.388 268.011 129.171 273.485 124.432C277.997 120.521 281.814 115.669 284.733 110.136C285.926 107.87 286.956 105.5 287.814 103.046C289.551 98.1256 290.589 92.9224 290.89 87.631C290.973 86.5792 290.958 85.7723 290.983 85.2325C291.007 84.6927 291.017 84.4145 291.017 84.4145C291.017 84.4145 291.017 84.6927 291.017 85.2325C291.017 85.7723 291.017 86.5792 290.948 87.631C290.681 92.9372 289.662 98.1594 287.931 103.096C287.079 105.561 286.052 107.944 284.86 110.219C281.946 115.779 278.129 120.657 273.612 124.593C268.118 129.361 261.721 132.601 254.931 134.054C251.159 134.865 247.31 135.112 243.482 134.788C241.482 134.627 239.494 134.313 237.531 133.848C235.515 133.354 233.53 132.711 231.589 131.922C223.324 128.503 216.134 122.374 210.927 114.309C209.568 112.211 208.358 109.993 207.308 107.676C206.76 106.518 206.291 105.305 205.812 104.098C205.332 102.89 204.941 101.638 204.589 100.364C203.839 97.8122 203.273 95.1954 202.897 92.5393C202.121 87.1513 202.121 81.6554 202.897 76.2674C203.275 73.6227 203.841 71.0172 204.589 68.4766C204.946 67.2022 205.386 65.9723 205.817 64.7425C206.247 63.5126 206.76 62.3273 207.308 61.1698C208.361 58.8541 209.573 56.6361 210.932 54.5364C216.136 46.4723 223.325 40.345 231.589 36.929C233.529 36.1408 235.512 35.4976 237.526 35.0036C239.491 34.5391 241.481 34.2249 243.482 34.0631C247.309 33.7397 251.156 33.9866 254.926 34.7977C261.718 36.2438 268.117 39.4842 273.607 44.258C278.124 48.1962 281.941 53.0762 284.855 58.6378C287.046 62.836 288.693 67.3717 289.745 72.1049C290.398 75.0959 290.806 78.1492 290.963 81.2258C291.036 82.2776 291.012 83.0845 291.032 83.6243C291.051 84.1641 291.017 84.3867 291.017 84.3867Z" fill="#263238"/>
<path d="M284.518 82.5614C283.114 82.6282 281.97 82.5614 281.965 82.4223C281.96 82.2831 283.09 82.0939 284.493 82.0049C285.897 81.9159 287.041 81.9715 287.051 82.1385C287.061 82.3054 285.911 82.4946 284.518 82.5614Z" fill="#263238"/>
<path d="M283.574 94.1642C282.204 93.7969 281.128 93.3906 281.128 93.2515C281.128 93.1124 282.292 93.2793 283.667 93.6188C285.041 93.9583 286.112 94.3701 286.112 94.5314C286.112 94.6928 284.933 94.5259 283.574 94.1642Z" fill="#263238"/>
<path d="M279.921 105.044C278.683 104.276 277.735 103.547 277.793 103.424C277.852 103.302 278.908 103.808 280.15 104.537C281.393 105.266 282.346 106.017 282.278 106.162C282.209 106.307 281.153 105.817 279.921 105.044Z" fill="#263238"/>
<path d="M273.832 114.415C272.825 113.302 272.076 112.311 272.165 112.189C272.253 112.067 273.143 112.896 274.17 113.998C275.197 115.099 275.935 116.084 275.837 116.224C275.739 116.363 274.835 115.534 273.832 114.415Z" fill="#263238"/>
<path d="M265.763 121.594C265.059 120.208 264.57 119.028 264.677 118.956C264.785 118.884 265.46 119.941 266.183 121.31C266.907 122.679 267.396 123.859 267.274 123.948C267.152 124.037 266.472 122.968 265.763 121.594Z" fill="#263238"/>
<path d="M256.3 126.04C255.948 124.487 255.757 123.202 255.88 123.169C256.002 123.135 256.398 124.354 256.774 125.895C257.151 127.437 257.337 128.722 257.195 128.767C257.053 128.811 256.652 127.587 256.3 126.04Z" fill="#263238"/>
<path d="M246.133 127.42C246.133 125.817 246.275 124.521 246.397 124.521C246.519 124.521 246.622 125.823 246.622 127.42C246.622 129.017 246.5 130.319 246.358 130.319C246.216 130.319 246.108 129.028 246.133 127.42Z" fill="#263238"/>
<path d="M236.029 125.678C236.43 124.142 236.851 122.935 236.973 122.974C237.095 123.013 236.88 124.293 236.484 125.834C236.088 127.376 235.682 128.617 235.54 128.539C235.399 128.461 235.604 127.214 236.029 125.678Z" fill="#263238"/>
<path d="M226.674 120.887C227.422 119.535 228.112 118.494 228.219 118.566C228.327 118.639 227.818 119.813 227.09 121.182C226.361 122.551 225.667 123.586 225.544 123.502C225.422 123.419 225.926 122.245 226.674 120.887Z" fill="#263238"/>
<path d="M218.806 113.43C219.847 112.35 220.762 111.56 220.84 111.666C220.918 111.771 220.165 112.74 219.138 113.836C218.111 114.932 217.206 115.723 217.104 115.606C217.001 115.489 217.769 114.509 218.806 113.43Z" fill="#263238"/>
<path d="M212.976 103.847C214.233 103.129 215.299 102.645 215.353 102.768C215.407 102.89 214.448 103.597 213.201 104.342C211.954 105.088 210.893 105.572 210.824 105.422C210.756 105.272 211.724 104.571 212.976 103.847Z" fill="#263238"/>
<path d="M209.621 92.8397C211.005 92.5281 212.145 92.389 212.169 92.5281C212.194 92.6672 211.098 93.0512 209.724 93.3851C208.35 93.719 207.206 93.8581 207.176 93.6967C207.147 93.5353 208.252 93.1513 209.621 92.8397Z" fill="#263238"/>
<path d="M209 81.2312C210.404 81.348 211.533 81.5595 211.529 81.6986C211.524 81.8378 210.374 81.8767 208.971 81.7821C207.567 81.6875 206.433 81.4816 206.443 81.3146C206.452 81.1477 207.597 81.0865 209 81.2312Z" fill="#263238"/>
<path d="M211.128 69.8066C212.453 70.3631 213.49 70.9196 213.451 71.0364C213.411 71.1533 212.296 70.8528 210.966 70.3297C209.636 69.8066 208.599 69.2612 208.643 69.1054C208.687 68.9496 209.807 69.2612 211.128 69.8066Z" fill="#263238"/>
<path d="M215.876 59.4837C217.021 60.413 217.891 61.2589 217.832 61.3757C217.774 61.4926 216.766 60.8471 215.607 59.94C214.448 59.0329 213.578 58.187 213.651 58.0479C213.724 57.9088 214.727 58.5543 215.876 59.4837Z" fill="#263238"/>
<path d="M222.874 50.9803C223.759 52.2213 224.4 53.3009 224.307 53.3955C224.214 53.4901 223.397 52.5608 222.498 51.3309C221.598 50.1011 220.952 49.0271 221.065 48.9213C221.177 48.8156 221.989 49.7394 222.874 50.9803Z" fill="#263238"/>
<path d="M231.628 44.9146C232.185 46.3837 232.552 47.6191 232.435 47.6971C232.318 47.775 231.76 46.6175 231.183 45.1594C230.606 43.7014 230.239 42.466 230.371 42.377C230.503 42.2879 231.056 43.451 231.628 44.9146Z" fill="#263238"/>
<path d="M241.477 41.7593C241.668 43.3453 241.727 44.6475 241.6 44.6697C241.472 44.692 241.203 43.4232 240.993 41.8428C240.783 40.2623 240.724 38.9546 240.866 38.9323C241.008 38.91 241.287 40.1733 241.477 41.7593Z" fill="#263238"/>
<path d="M251.718 41.7204C251.532 43.3064 251.283 44.5808 251.16 44.5641C251.038 44.5474 251.067 43.2397 251.234 41.6537C251.4 40.0677 251.649 38.7877 251.791 38.81C251.933 38.8322 251.904 40.1289 251.718 41.7204Z" fill="#263238"/>
<path d="M261.591 44.7977C261.039 46.2725 260.496 47.4188 260.379 47.3632C260.261 47.3075 260.608 46.0666 261.141 44.5807C261.674 43.0949 262.222 41.9541 262.354 42.0209C262.486 42.0876 262.149 43.3286 261.591 44.7977Z" fill="#263238"/>
<path d="M270.374 50.7912C269.494 52.0433 268.702 52.9838 268.604 52.8948C268.506 52.8057 269.127 51.7094 269.993 50.4462C270.859 49.183 271.646 48.2202 271.763 48.3482C271.881 48.4762 271.24 49.5447 270.374 50.7912Z" fill="#263238"/>
<path d="M277.431 59.2387C276.287 60.1737 275.304 60.8414 275.231 60.7246C275.157 60.6077 276.013 59.7452 277.143 58.788C278.273 57.8308 279.256 57.1686 279.344 57.3022C279.432 57.4357 278.576 58.3038 277.431 59.2387Z" fill="#263238"/>
<path d="M282.239 69.5448C280.918 70.1013 279.793 70.4297 279.764 70.3017C279.735 70.1737 280.742 69.5949 282.067 69.0217C283.393 68.4485 284.483 68.1091 284.537 68.2649C284.591 68.4207 283.559 68.9883 282.239 69.5448Z" fill="#263238"/>
<path d="M284.444 80.9086C283.041 81.0366 281.896 81.0255 281.887 80.9086C281.877 80.7917 283.002 80.5357 284.4 80.3521C285.799 80.1685 286.948 80.213 286.958 80.3799C286.968 80.5469 285.833 80.7806 284.444 80.9086Z" fill="#263238"/>
<path d="M229.53 29.8671L229.378 29.945L228.929 30.1509C228.537 30.3401 227.95 30.5682 227.202 30.9411C225.094 31.944 223.047 33.106 221.075 34.4192C219.823 35.2428 218.497 36.2278 217.104 37.3352C215.71 38.4426 214.287 39.7337 212.864 41.1861C206.616 47.453 201.843 55.3974 198.98 64.2972C198.31 66.334 197.806 68.3262 197.371 70.1905C196.936 72.0547 196.642 73.8355 196.422 75.4605C196.065 78.0279 195.858 80.6194 195.801 83.218C195.762 84.1417 195.801 84.854 195.801 85.3382C195.801 85.5719 195.801 85.75 195.801 85.8947C195.806 85.9576 195.806 86.0209 195.801 86.0839C195.795 86.0229 195.795 85.9612 195.801 85.9002C195.801 85.7611 195.801 85.5775 195.801 85.3438C195.801 84.8596 195.747 84.1473 195.772 83.2235C195.789 80.6152 195.971 78.0115 196.315 75.4326C196.52 73.7965 196.838 72.0213 197.234 70.1348C197.676 68.1295 198.208 66.1514 198.828 64.2082C201.677 55.2487 206.478 47.2586 212.781 40.9858C214.213 39.5333 215.671 38.2812 217.05 37.1404C218.429 35.9996 219.788 35.0536 221.055 34.2411C223.041 32.9414 225.105 31.8033 227.232 30.8354C227.98 30.4792 228.581 30.2789 228.982 30.0952L229.442 29.9172C229.47 29.898 229.5 29.8813 229.53 29.8671Z" fill="white"/>
<path d="M244.25 26.6173C243.747 26.7361 243.237 26.8124 242.724 26.8455C241.776 26.9568 240.475 27.1181 239.037 27.3296C237.599 27.5411 236.303 27.7637 235.364 27.9306C234.861 28.0483 234.351 28.1227 233.839 28.1532C234.325 27.9603 234.826 27.8187 235.335 27.7303C236.269 27.5133 237.565 27.2573 239.003 27.0458C240.441 26.8343 241.756 26.7008 242.71 26.6396C243.221 26.5773 243.737 26.5699 244.25 26.6173Z" fill="white"/>
<g opacity="0.4">
<path d="M211.333 114.682C211.333 114.682 234.284 155.896 269.886 134.788C307.052 112.751 286.513 62.2383 286.513 62.2383C286.513 62.2383 304.001 102.495 267.773 128.739C258.75 135.278 248.925 135.283 241.433 134.426C222.287 132.245 211.333 114.682 211.333 114.682Z" fill="black"/>
</g>
<path d="M259.073 57.6027C259.293 64.994 259.097 72.3938 258.486 79.7566C258.261 82.4222 257.997 85.1156 257.092 87.592C256.188 90.0684 254.647 92.3389 252.476 93.3851C250.304 94.4313 247.527 93.9972 246.016 91.9493L259.073 57.6027Z" fill="#E0E0E0"/>
<path d="M245.766 80.4133L261.861 49.5725L252.148 84.3922L247.184 86.0784L245.766 80.4133Z" fill="#FF725E"/>
<g opacity="0.4">
<path d="M261.86 49.5725L249.923 81.0867L252.148 84.3922L261.86 49.5725Z" fill="black"/>
</g>
<path d="M247.184 91.9716C250.045 91.9716 252.363 89.3331 252.363 86.0783C252.363 82.8236 250.045 80.1851 247.184 80.1851C244.324 80.1851 242.005 82.8236 242.005 86.0783C242.005 89.3331 244.324 91.9716 247.184 91.9716Z" fill="#FAFAFA"/>
<path d="M252.363 86.0783C252.317 85.5993 252.247 85.1237 252.153 84.6537C251.853 83.3844 251.189 82.2658 250.265 81.4761C249.587 80.8954 248.792 80.5173 247.952 80.3763C247.112 80.2354 246.255 80.3361 245.458 80.6692C244.999 80.8539 244.569 81.1186 244.182 81.4538C243.769 81.7941 243.408 82.2075 243.111 82.6781C242.475 83.6642 242.132 84.8553 242.132 86.0783C242.132 87.3013 242.475 88.4924 243.111 89.4785C243.704 90.3953 244.52 91.0953 245.458 91.493C246.127 91.7722 246.84 91.8893 247.552 91.8366C248.263 91.7838 248.957 91.5626 249.588 91.1869C250.22 90.8112 250.776 90.2894 251.22 89.655C251.664 89.0206 251.987 88.2876 252.168 87.5029C252.262 87.0331 252.332 86.5574 252.378 86.0783C252.408 86.5662 252.37 87.0564 252.265 87.5307C251.998 88.8576 251.334 90.0378 250.387 90.8697C249.738 91.4432 248.979 91.8341 248.172 92.0105C247.244 92.2124 246.285 92.1279 245.394 91.7656C244.911 91.5757 244.457 91.2996 244.05 90.9476C243.617 90.5919 243.237 90.1598 242.925 89.6677C242.251 88.6362 241.888 87.3854 241.888 86.1006C241.888 84.8157 242.251 83.5649 242.925 82.5334C243.239 82.0426 243.618 81.6107 244.05 81.2535C244.459 80.9065 244.912 80.6325 245.394 80.441C246.284 80.0761 247.244 79.9915 248.172 80.1962C249.158 80.4119 250.069 80.9466 250.795 81.7362C251.521 82.5258 252.031 83.5368 252.265 84.6481C252.363 85.1162 252.396 85.5987 252.363 86.0783Z" fill="#263238"/>
<path d="M250.978 86.9619C251.4 84.5881 250.051 82.2747 247.965 81.7947C245.879 81.3148 243.846 82.8501 243.424 85.2239C243.002 87.5977 244.351 89.9112 246.437 90.3911C248.524 90.871 250.557 89.3357 250.978 86.9619Z" fill="#455A64"/>
<path d="M206.355 227.528H231.834L219.955 111.031L206.355 227.528Z" fill="#E0E0E0"/>
<path d="M80.9847 111.031L64.3965 228.902L205.949 231L219.955 111.031H80.9847Z" fill="#FAFAFA"/>
<path d="M213.651 165.028H73.385L76.4366 143.325H216.184L213.651 165.028Z" fill="#EBEBEB"/>
<path d="M213.661 165.045H73.3704L76.4269 143.341H216.199L213.661 165.045ZM73.3997 165.017H213.641L216.17 143.314H76.4513L73.3997 165.017Z" fill="#263238"/>
<path d="M80.9847 111.031L76.4366 143.325H216.184L219.955 111.031H80.9847Z" fill="#FF725E"/>
<path d="M81.0043 111.031L219.974 110.898H220.106V111.048C216.013 146.168 211.367 185.996 206.457 228.062V228.19H204.755L64.5139 228.145H64.377V228.006L81.0043 111.031C80.8673 112 74.549 157.192 64.6361 228.062L64.5334 227.923H204.721H206.311L206.188 228.045C211.103 185.98 215.759 146.157 219.881 111.037L219.994 111.182L81.0043 111.031Z" fill="#263238"/>
<path d="M216.184 143.325C216.184 143.403 184.886 143.469 146.315 143.469C107.745 143.469 76.4366 143.403 76.4366 143.325C76.4366 143.247 107.735 143.18 146.315 143.18C184.896 143.18 216.184 143.241 216.184 143.325Z" fill="#263238"/>
<path d="M213.651 165.028C213.651 165.111 182.186 165.173 143.386 165.173C104.586 165.173 73.1161 165.111 73.1161 165.028C73.1161 164.944 104.571 164.883 143.386 164.883C182.201 164.883 213.651 164.95 213.651 165.028Z" fill="#263238"/>
<path d="M210.795 185C210.795 185.084 179.335 185.145 140.535 185.145C101.735 185.145 70.2455 185.084 70.2455 185C70.2455 184.917 101.7 184.856 140.515 184.856C179.33 184.856 210.795 184.922 210.795 185Z" fill="#263238"/>
<path d="M207.944 204.973C207.944 205.051 176.479 205.117 137.679 205.117C98.8786 205.117 67.4089 205.051 67.4089 204.973C67.4089 204.895 98.8639 204.828 137.679 204.828C176.494 204.828 207.944 204.895 207.944 204.973Z" fill="#263238"/>
<path d="M84.2662 228.223C84.1978 228.223 86.7652 209.191 90.0075 185.752C93.2499 162.312 95.9249 143.308 95.9934 143.325C96.0618 143.341 93.4944 162.345 90.257 185.796C87.0195 209.247 84.3396 228.234 84.2662 228.223Z" fill="#263238"/>
<path d="M105.896 228.223C105.823 228.223 108.395 209.191 111.633 185.752C114.87 162.312 117.55 143.308 117.623 143.325C117.697 143.341 115.124 162.345 111.882 185.796C108.64 209.247 105.945 228.234 105.896 228.223Z" fill="#263238"/>
<path d="M125.996 227.372C125.927 227.372 128.47 208.534 131.673 185.329C134.877 162.123 137.542 143.308 137.606 143.325C137.669 143.341 135.131 162.156 131.928 185.373C128.725 208.59 126.059 227.383 125.996 227.372Z" fill="#263238"/>
<path d="M145.875 228.045C145.807 228.045 148.369 209.052 151.602 185.663C154.834 162.273 157.509 143.308 157.578 143.325C157.646 143.341 155.084 162.307 151.851 185.707C148.619 209.108 145.944 228.056 145.875 228.045Z" fill="#263238"/>
<path d="M165.852 228.045C165.784 228.045 168.347 209.052 171.579 185.663C174.812 162.273 177.487 143.308 177.555 143.325C177.624 143.341 175.066 162.307 171.833 185.707C168.601 209.108 165.926 228.056 165.852 228.045Z" fill="#263238"/>
<path d="M185.815 228.145C185.746 228.145 188.314 209.13 191.551 185.702C194.789 162.273 197.464 143.286 197.537 143.302C197.611 143.319 195.038 162.312 191.801 185.746C188.563 209.18 185.883 228.179 185.815 228.145Z" fill="#263238"/>
<g opacity="0.2">
<path d="M173.247 144.838C175.653 143.625 177.159 140.776 177.78 137.865C178.401 134.955 178.303 131.917 178.396 128.917C178.489 125.918 178.802 122.829 180.147 120.253C180.944 118.733 182.064 117.47 182.949 116.006C183.834 114.543 184.49 112.762 184.162 110.998L169.109 111.087L173.247 144.838Z" fill="black"/>
</g>
<path d="M110.836 166.636C110.795 166.711 110.746 166.778 110.689 166.837L110.239 167.393C109.843 167.855 109.261 168.506 108.527 169.319C107.06 170.921 105.021 173.103 102.698 175.44C100.375 177.777 98.2233 179.814 96.6437 181.261C95.8515 181.984 95.2059 182.563 94.756 182.93L94.2327 183.376C94.1745 183.433 94.1084 183.48 94.0371 183.515C94.0371 183.515 94.0909 183.442 94.1985 183.331L94.6875 182.841L96.5214 181.077C98.0766 179.591 100.209 177.527 102.527 175.201C104.845 172.874 106.928 170.715 108.395 169.152L110.161 167.298L110.65 166.803C110.705 166.739 110.768 166.683 110.836 166.636Z" fill="#263238"/>
<path d="M109.706 183.737C109.498 183.531 109.304 183.308 109.124 183.069L107.593 181.211C106.273 179.614 104.503 177.465 102.551 175.089L97.4555 169.024L95.9101 167.182C95.7151 166.962 95.5337 166.728 95.3673 166.48C95.5888 166.667 95.7951 166.875 95.9835 167.104C96.365 167.515 96.9127 168.122 97.5827 168.879C98.9226 170.392 100.752 172.513 102.732 174.895C104.713 177.276 106.473 179.469 107.725 181.077C108.351 181.878 108.855 182.535 109.192 182.991C109.383 183.222 109.555 183.471 109.706 183.737Z" fill="#263238"/>
<path d="M114.929 171.75C114.929 171.75 114.978 171.606 115.081 171.322C115.243 170.91 115.439 170.517 115.667 170.148C116.567 168.718 117.835 167.642 119.296 167.07C120.343 166.64 121.459 166.472 122.568 166.58C123.888 166.726 125.16 167.22 126.284 168.022C127.582 168.932 128.678 170.169 129.488 171.639C130.424 173.28 130.89 175.21 130.823 177.165C130.766 178.219 130.479 179.241 129.986 180.137C129.47 181.065 128.783 181.855 127.972 182.452C126.244 183.712 124.21 184.318 122.162 184.182C121.089 184.117 120.032 183.856 119.032 183.409C117.991 182.946 117.055 182.224 116.293 181.294C115.915 180.805 115.596 180.26 115.345 179.675C115.105 179.077 114.941 178.444 114.856 177.794C114.693 176.462 114.795 175.107 115.154 173.826C115.902 171.155 117.523 168.914 119.682 167.565C120.802 166.866 122.047 166.467 123.323 166.401C124.599 166.334 125.871 166.601 127.042 167.181C128.256 167.763 129.318 168.688 130.128 169.869C130.94 171.082 131.447 172.523 131.595 174.037C131.765 175.574 131.546 177.134 130.964 178.534C130.666 179.237 130.273 179.882 129.801 180.448C129.32 181.006 128.777 181.49 128.187 181.89C126.996 182.636 125.683 183.095 124.329 183.239C122.975 183.382 121.61 183.207 120.318 182.724C119.046 182.28 117.877 181.52 116.895 180.498C115.921 179.476 115.255 178.131 114.992 176.653C114.717 175.2 114.899 173.684 115.506 172.368C115.814 171.72 116.237 171.151 116.748 170.698C117.251 170.266 117.813 169.93 118.411 169.702C119.585 169.274 120.817 169.085 122.049 169.146C123.249 169.156 124.442 169.343 125.6 169.702C126.744 170.045 127.801 170.689 128.686 171.583C129.533 172.483 130.111 173.662 130.339 174.956C130.563 176.205 130.497 177.5 130.148 178.712C129.802 179.881 129.217 180.939 128.441 181.8C126.968 183.44 125.017 184.406 122.959 184.516C121.996 184.574 121.032 184.415 120.122 184.049C119.25 183.692 118.465 183.103 117.834 182.329C117.237 181.591 116.785 180.716 116.509 179.764C116.236 178.87 116.115 177.926 116.152 176.981C116.221 175.232 116.835 173.567 117.883 172.284C118.779 171.169 119.912 170.335 121.174 169.864C122.233 169.471 123.355 169.349 124.46 169.508C125.988 169.724 127.439 170.389 128.671 171.439C128.991 171.706 129.293 172 129.576 172.318C129.766 172.535 129.859 172.652 129.859 172.652C129.859 172.652 129.752 172.546 129.561 172.34C129.27 172.033 128.963 171.747 128.642 171.483C127.407 170.465 125.964 169.823 124.45 169.619C123.257 169.462 122.047 169.632 120.923 170.116C119.799 170.6 118.793 171.384 117.99 172.401C116.97 173.656 116.375 175.284 116.313 176.992C116.28 177.919 116.401 178.844 116.67 179.719C116.942 180.643 117.384 181.491 117.966 182.207C118.579 182.956 119.34 183.528 120.186 183.876C121.073 184.227 122.011 184.378 122.949 184.321C124.958 184.209 126.86 183.26 128.294 181.656C129.044 180.822 129.608 179.798 129.942 178.667C130.277 177.496 130.338 176.245 130.118 175.039C129.898 173.797 129.343 172.665 128.529 171.8C127.669 170.94 126.644 170.318 125.536 169.986C124.398 169.632 123.224 169.445 122.044 169.43C120.841 169.378 119.64 169.566 118.494 169.986C117.325 170.393 116.336 171.29 115.726 172.496C115.147 173.754 114.974 175.203 115.237 176.592C115.49 178.011 116.132 179.303 117.071 180.281C118.022 181.282 119.159 182.027 120.396 182.463C121.653 182.933 122.982 183.104 124.3 182.964C125.618 182.825 126.896 182.377 128.055 181.65C128.627 181.268 129.152 180.8 129.615 180.259C130.069 179.716 130.447 179.097 130.735 178.423C131.297 177.071 131.51 175.566 131.346 174.082C131.206 172.619 130.721 171.227 129.942 170.053C129.159 168.912 128.132 168.017 126.959 167.454C125.823 166.889 124.588 166.629 123.349 166.692C122.111 166.756 120.901 167.142 119.814 167.821C117.716 169.136 116.14 171.317 115.413 173.915C115.064 175.158 114.963 176.473 115.115 177.766C115.203 178.394 115.367 179.004 115.604 179.58C115.846 180.142 116.152 180.666 116.513 181.138C117.251 182.038 118.157 182.738 119.164 183.186C120.142 183.626 121.175 183.885 122.225 183.954C124.23 184.094 126.222 183.509 127.918 182.285C128.701 181.739 129.361 180.991 129.845 180.102C130.328 179.213 130.621 178.207 130.7 177.165C130.769 175.253 130.316 173.364 129.404 171.756C128.613 170.305 127.539 169.08 126.265 168.178C125.161 167.383 123.911 166.889 122.612 166.736C121.519 166.618 120.418 166.774 119.384 167.193C117.936 167.75 116.673 168.798 115.765 170.198C115.531 170.561 115.328 170.948 115.159 171.355C114.992 171.611 114.929 171.75 114.929 171.75Z" fill="#FF725E"/>
<path d="M128.177 187.115C128.221 187.176 124.343 190.949 119.511 195.546C114.679 200.143 110.708 203.81 110.679 203.749C110.65 203.687 114.513 199.914 119.345 195.323C124.177 190.732 128.133 187.054 128.177 187.115Z" fill="#263238"/>
<path d="M129.023 203.253C128.793 203.099 128.575 202.922 128.373 202.725L126.651 201.2C125.208 199.898 123.228 198.084 121.047 196.069C118.866 194.055 116.905 192.218 115.491 190.877L113.824 189.274C113.612 189.091 113.416 188.886 113.237 188.662C113.466 188.818 113.683 188.995 113.887 189.191L115.604 190.716C117.046 192.018 119.027 193.832 121.208 195.846C123.389 197.861 125.35 199.697 126.769 201.039L128.431 202.636C128.641 202.825 128.839 203.031 129.023 203.253Z" fill="#263238"/>
<path d="M169.002 187.332C169.041 187.393 165.334 190.627 160.713 194.567C156.091 198.506 152.316 201.617 152.272 201.55C152.228 201.484 155.94 198.256 160.561 194.316C165.182 190.376 168.958 187.265 169.002 187.332Z" fill="#263238"/>
<path d="M170.439 201.022C170.405 201.089 166.464 198.312 161.637 194.811C156.81 191.311 152.942 188.428 152.976 188.356C153.01 188.284 156.952 191.072 161.779 194.567C166.605 198.061 170.498 200.955 170.439 201.022Z" fill="#263238"/>
<path d="M128.813 228.051C128.759 227.995 132.613 223.398 137.415 217.794C142.217 212.191 146.154 207.677 146.218 207.733C146.281 207.789 142.418 212.385 137.615 217.995C132.813 223.604 128.862 228.106 128.813 228.051Z" fill="#FF725E"/>
<path d="M145.103 228.045C145.103 228.045 145.039 227.984 144.941 227.85L144.53 227.294C144.149 226.737 143.64 226.019 143.019 225.14C141.743 223.326 139.933 220.861 137.835 218.24C135.737 215.618 133.747 213.342 132.28 211.729L130.539 209.781L130.05 209.258C129.993 209.199 129.943 209.134 129.898 209.063C129.898 209.063 129.972 209.108 130.084 209.213L130.573 209.697C131.008 210.12 131.625 210.749 132.378 211.539C133.874 213.12 135.889 215.379 137.997 218.006C140.105 220.632 141.909 223.126 143.132 224.973C143.758 225.897 144.252 226.643 144.599 227.199L144.975 227.811C145.026 227.883 145.069 227.961 145.103 228.045Z" fill="#FF725E"/>
<path d="M105.07 204.639C105.07 204.639 105.226 218.312 102.194 226.498L83.7135 222.914C83.7135 222.914 89.2788 209.959 87.7627 202.758L105.07 204.639Z" fill="#EBEBEB"/>
<path d="M105.065 204.127C105.065 204.127 102.747 220.911 101.329 225.919L82.9604 221.768C82.9604 221.768 86.7407 205.541 86.6918 201.022L105.065 204.127Z" fill="#FF725E"/>
<path d="M88.5551 208.546C88.5551 208.624 91.2839 209.347 94.6827 210.159C98.0815 210.972 100.845 211.567 100.859 211.495C100.874 211.423 98.1304 210.694 94.7316 209.881C91.3328 209.069 88.5697 208.468 88.5551 208.546Z" fill="white"/>
<path d="M88.0856 212.101C88.0856 212.179 90.8144 212.897 94.2132 213.715C97.612 214.533 100.375 215.123 100.39 215.051C100.404 214.979 97.6609 214.25 94.2621 213.437C90.8633 212.625 88.1002 212.007 88.0856 212.101Z" fill="white"/>
<path d="M90.785 216.125C91.0983 216.28 91.4266 216.392 91.7631 216.459C92.394 216.631 93.2694 216.86 94.2328 217.093C95.1962 217.327 96.0813 217.516 96.722 217.65C97.0641 217.748 97.4157 217.796 97.7685 217.794C97.4433 217.639 97.1037 217.525 96.7562 217.455C96.1302 217.277 95.2548 217.049 94.2866 216.821C93.3183 216.592 92.438 216.392 91.8022 216.264C91.4693 216.171 91.1278 216.125 90.785 216.125Z" fill="white"/>
<path d="M192.505 166.247C192.505 166.247 194.398 179.569 192.481 188.067L173.975 187.616C173.975 187.616 177.761 174.049 175.359 167.265L192.505 166.247Z" fill="#EBEBEB"/>
<path d="M192.422 165.746C192.422 165.746 192.3 182.502 191.551 187.616L173.08 186.62C173.08 186.62 174.699 170.147 174.058 165.746H192.422Z" fill="#455A64"/>
<path d="M176.68 173.203C176.68 173.281 179.458 173.348 182.886 173.353C186.314 173.359 189.096 173.303 189.096 173.225C189.096 173.147 186.319 173.08 182.886 173.075C179.453 173.069 176.68 173.125 176.68 173.203Z" fill="white"/>
<path d="M176.856 176.748C176.856 176.826 179.634 176.892 183.062 176.898C186.49 176.903 189.273 176.848 189.273 176.77C189.273 176.692 186.495 176.625 183.062 176.62C179.629 176.614 176.856 176.67 176.856 176.748Z" fill="white"/>
<path d="M180.167 180.014C180.507 180.097 180.855 180.133 181.203 180.12C181.844 180.12 182.729 180.159 183.707 180.164C184.685 180.17 185.566 180.164 186.206 180.125C186.554 180.141 186.902 180.109 187.243 180.031C186.902 179.948 186.554 179.914 186.206 179.931C185.566 179.903 184.685 179.886 183.707 179.88C182.729 179.875 181.844 179.88 181.203 179.919C180.856 179.904 180.508 179.935 180.167 180.014Z" fill="white"/>
<path d="M196.417 127.832C192.965 127.832 189.488 125.367 187.659 121.488C185.881 117.626 185.33 113.183 186.099 108.911C187.111 103.346 190.348 98.7832 194.349 97.3251C197.747 96.0842 203.821 96.7686 206.687 102.228C208.052 104.897 208.73 107.95 208.643 111.037C208.63 111.256 208.58 111.471 208.494 111.668C208.409 111.864 208.29 112.04 208.144 112.185C207.999 112.33 207.83 112.44 207.647 112.511C207.464 112.581 207.271 112.61 207.078 112.595C206.689 112.566 206.326 112.362 206.07 112.028C205.813 111.694 205.683 111.257 205.709 110.815C205.735 108.404 205.192 106.03 204.134 103.942C201.924 99.7403 197.077 99.8238 195.209 100.503C191.786 101.749 189.595 105.962 188.935 109.585C188.301 113.092 188.752 116.741 190.211 119.913C191.654 122.974 194.574 124.877 197.161 124.426C197.543 124.366 197.93 124.479 198.239 124.741C198.548 125.003 198.755 125.393 198.813 125.827C198.872 126.26 198.778 126.703 198.552 127.058C198.326 127.414 197.986 127.654 197.606 127.726C197.212 127.796 196.815 127.831 196.417 127.832Z" fill="#263238"/>
<path d="M101.7 127.832C98.2429 127.832 94.7707 125.367 92.9417 121.488C91.162 117.626 90.6092 113.183 91.3768 108.911C92.2326 104.214 95.1277 98.8053 99.6904 97.3139C101.89 96.6358 104.223 96.7703 106.351 97.6979L105.295 100.814C103.763 100.152 102.088 100.049 100.502 100.519C97.1376 101.632 94.9467 105.873 94.2719 109.585C93.638 113.092 94.0889 116.741 95.5482 119.913C96.9909 122.979 99.9154 124.877 102.497 124.426L102.943 127.726C102.532 127.798 102.116 127.834 101.7 127.832Z" fill="#263238"/>
<path d="M195.209 111.12L193.86 119.529H213.719L215.485 111.204L195.209 111.12Z" fill="#FF725E"/>
<path d="M106.733 126.502C106.734 127.213 106.549 127.909 106.202 128.501C105.855 129.093 105.362 129.555 104.785 129.828C104.207 130.1 103.572 130.172 102.958 130.034C102.345 129.895 101.782 129.553 101.339 129.049C100.897 128.546 100.596 127.905 100.475 127.207C100.353 126.51 100.416 125.786 100.656 125.129C100.895 124.472 101.301 123.911 101.821 123.516C102.342 123.121 102.953 122.911 103.578 122.912C104.414 122.914 105.216 123.293 105.807 123.965C106.399 124.638 106.731 125.55 106.733 126.502Z" fill="#263238"/>
<path d="M201.366 126.502C201.367 127.213 201.183 127.909 200.836 128.501C200.489 129.093 199.996 129.555 199.418 129.828C198.841 130.1 198.205 130.172 197.592 130.034C196.979 129.895 196.415 129.553 195.973 129.049C195.531 128.546 195.23 127.905 195.108 127.207C194.987 126.51 195.05 125.786 195.289 125.129C195.529 124.472 195.935 123.911 196.455 123.516C196.975 123.121 197.587 122.911 198.212 122.912C199.048 122.914 199.85 123.293 200.441 123.965C201.032 124.638 201.365 125.55 201.366 126.502Z" fill="#263238"/>
<path d="M149.25 56.9238L144.056 79.3393L126.128 81.5319V85.1491L151.318 86.1564L156.052 61.0085L149.25 56.9238Z" fill="#FFBE9D"/>
<path d="M156.805 86.7517C156.805 86.7517 128.793 85.2325 120.817 92.3167C112.841 99.4008 116.704 111.031 116.704 111.031L161.784 110.898L165.765 84.8931L156.805 86.7517Z" fill="#263238"/>
<path d="M161.574 103.908C161.438 103.912 161.302 103.901 161.168 103.875C160.904 103.842 160.517 103.797 160.018 103.725C159.04 103.586 157.573 103.352 155.813 103.012C151.19 102.118 146.618 100.916 142.12 99.4119C139.489 98.5271 136.999 97.6367 134.701 96.9856C132.672 96.3881 130.597 96.0153 128.505 95.8726C127.093 95.7827 125.677 95.876 124.284 96.1508C123.795 96.2176 123.419 96.3623 123.155 96.4124C123.024 96.449 122.892 96.4769 122.759 96.4959C122.883 96.4349 123.012 96.3883 123.145 96.3567C123.512 96.2264 123.886 96.1205 124.265 96.0396C125.661 95.7186 127.087 95.5934 128.51 95.6667C130.632 95.7818 132.739 96.1378 134.799 96.7296C137.112 97.364 139.606 98.2544 142.227 99.1392C146.701 100.63 151.241 101.854 155.827 102.806C157.593 103.174 159.026 103.435 160.018 103.613L161.163 103.819C161.302 103.836 161.439 103.866 161.574 103.908Z" fill="#455A64"/>
<path d="M135.537 96.8132C134.759 96.0829 133.93 95.4259 133.058 94.8488C132.144 94.3622 131.197 93.9602 130.226 93.6467C130.527 93.6169 130.831 93.6508 131.121 93.7469C131.836 93.9221 132.527 94.2066 133.175 94.5928C133.822 94.9811 134.421 95.4658 134.955 96.0341C135.19 96.2506 135.387 96.5148 135.537 96.8132Z" fill="#455A64"/>
<path d="M159.774 156.041L160.15 169.435L157.784 180.131C157.745 180.314 157.74 180.504 157.769 180.69C157.798 180.875 157.861 181.052 157.953 181.208C158.044 181.365 158.164 181.499 158.303 181.601C158.442 181.702 158.598 181.77 158.762 181.801C158.951 181.84 159.145 181.827 159.329 181.763C159.513 181.699 159.68 181.586 159.818 181.433C161.598 179.452 168.132 172.129 168.048 171.155C167.96 170.042 168.474 156.987 168.474 156.987L159.774 156.041Z" fill="#FF725E"/>
<g opacity="0.6">
<path d="M158.718 181.823L168.009 170.27V170.827C168.015 171.318 167.866 171.796 167.589 172.173C166.85 173.181 164.752 175.913 159.818 181.444C159.677 181.603 159.503 181.72 159.313 181.784C159.123 181.848 158.922 181.858 158.727 181.812L158.718 181.823Z" fill="white"/>
</g>
<g opacity="0.6">
<path d="M165.545 165.968C165.395 166.093 165.293 166.276 165.258 166.482C165.222 166.689 165.257 166.903 165.354 167.081C165.457 167.248 165.612 167.364 165.787 167.405C165.962 167.447 166.145 167.41 166.298 167.304C166.451 167.175 166.556 166.985 166.592 166.771C166.629 166.558 166.593 166.337 166.493 166.152C166.372 165.989 166.199 165.886 166.012 165.865C165.825 165.845 165.638 165.908 165.491 166.041" fill="white"/>
</g>
<path d="M161.363 175.935C161.295 175.974 161.021 175.279 160.322 174.906C159.889 174.712 159.427 174.618 158.962 174.627C158.962 174.594 159.099 174.488 159.373 174.438C159.736 174.388 160.104 174.457 160.433 174.638C160.762 174.818 161.039 175.102 161.231 175.457C161.368 175.729 161.388 175.924 161.363 175.935Z" fill="#263238"/>
<path d="M160.537 177.744C160.199 177.534 159.849 177.348 159.49 177.187C159.108 177.111 158.723 177.059 158.336 177.031C158.516 176.9 158.721 176.82 158.934 176.797C159.147 176.775 159.361 176.811 159.559 176.903C160.253 177.115 160.596 177.705 160.537 177.744Z" fill="#263238"/>
<path d="M162.904 173.609C162.404 173.234 161.881 172.901 161.339 172.613C160.766 172.414 160.181 172.265 159.588 172.168C160.204 172.021 160.844 172.079 161.432 172.334C162.02 172.59 162.531 173.032 162.904 173.609Z" fill="#263238"/>
<path d="M163.09 169.535C163.06 169.619 162.405 169.313 161.559 169.291C160.713 169.268 160.043 169.502 160.014 169.419C160.488 169.121 161.024 168.975 161.566 168.995C162.107 169.016 162.634 169.202 163.09 169.535Z" fill="#263238"/>
<path d="M163.065 165.601C162.55 165.417 162.015 165.314 161.476 165.295C160.941 165.366 160.418 165.521 159.921 165.757C159.921 165.729 160.028 165.557 160.297 165.378C160.657 165.147 161.06 165.016 161.473 164.996C161.886 164.975 162.298 165.066 162.674 165.262C162.943 165.412 163.085 165.568 163.065 165.601Z" fill="#263238"/>
<path d="M161.49 164.544C161.46 164.377 161.46 164.204 161.49 164.037C161.527 163.572 161.645 163.12 161.838 162.707C161.952 162.39 162.157 162.125 162.42 161.956C162.51 161.91 162.612 161.896 162.709 161.917C162.807 161.938 162.897 161.992 162.967 162.073C163.093 162.24 163.161 162.454 163.158 162.674C163.135 163.122 162.976 163.548 162.709 163.879C162.441 164.209 162.082 164.425 161.691 164.488C161.301 164.537 160.906 164.454 160.558 164.248C160.21 164.042 159.923 163.722 159.735 163.331C159.687 163.232 159.659 163.122 159.652 163.01C159.646 162.897 159.66 162.785 159.696 162.679C159.741 162.58 159.813 162.498 159.9 162.446C159.987 162.393 160.086 162.372 160.185 162.385C160.475 162.455 160.745 162.61 160.967 162.835C161.288 163.125 161.563 163.475 161.779 163.87C161.865 164.01 161.928 164.167 161.965 164.332C161.654 163.829 161.28 163.381 160.855 163.002C160.656 162.817 160.421 162.689 160.17 162.629C160.116 162.619 160.06 162.628 160.011 162.656C159.961 162.684 159.921 162.729 159.896 162.785C159.879 162.857 159.874 162.931 159.882 163.005C159.891 163.079 159.912 163.15 159.945 163.214C160.116 163.545 160.368 163.814 160.67 163.987C160.971 164.161 161.311 164.232 161.647 164.193C161.98 164.145 162.289 163.967 162.522 163.691C162.754 163.414 162.896 163.055 162.923 162.674C162.93 162.522 162.888 162.372 162.806 162.251C162.769 162.203 162.719 162.171 162.665 162.158C162.61 162.145 162.553 162.152 162.503 162.179C162.288 162.328 162.118 162.547 162.014 162.807C161.753 163.348 161.576 163.935 161.49 164.544Z" fill="#263238"/>
<path d="M165.74 84.893C165.74 84.893 153.627 110.954 153.46 115.5C153.294 120.047 153.46 161.956 153.46 161.956H172.21C172.699 161.956 175.511 143.074 174.939 138.728C174.367 134.382 172.347 111.02 172.347 111.02H183.135C183.135 111.02 186.094 107.42 185.986 102.851C185.923 100.33 184.475 95.177 183.052 92.4446C182.128 90.6917 176.206 81.5151 176.206 81.5151L165.74 84.893Z" fill="#263238"/>
<path d="M164.928 86.6571C164.915 86.7092 164.897 86.7596 164.875 86.8073C164.831 86.9186 164.772 87.0578 164.699 87.2303L163.994 88.8552C163.676 89.562 163.3 90.419 162.86 91.4151L162.156 93.0122L161.417 94.8319L157.784 103.786C157.094 105.455 156.37 107.242 155.617 109.073L154.478 111.855C154.109 112.817 153.831 113.821 153.646 114.849C153.461 115.88 153.364 116.929 153.358 117.982C153.328 119.023 153.309 120.052 153.294 121.059C153.294 123.085 153.26 125.033 153.265 126.891C153.265 130.609 153.304 133.959 153.338 136.769C153.372 139.579 153.402 141.833 153.426 143.447C153.426 144.215 153.426 144.822 153.426 145.256C153.426 145.45 153.426 145.606 153.426 145.729C153.426 145.851 153.426 145.89 153.426 145.89C153.418 145.837 153.418 145.782 153.426 145.729C153.426 145.606 153.426 145.45 153.426 145.261C153.426 144.822 153.387 144.221 153.358 143.447C153.309 141.878 153.245 139.602 153.191 136.769C153.138 133.937 153.079 130.614 153.064 126.891C153.064 125.033 153.064 123.079 153.064 121.059C153.064 120.047 153.094 119.017 153.128 117.971C153.133 116.902 153.229 115.836 153.416 114.788C153.606 113.74 153.891 112.718 154.267 111.738L155.412 108.956L157.593 103.68L161.3 94.7485L162.053 92.9343C162.312 92.3778 162.542 91.8213 162.777 91.3483L163.945 88.8107C164.263 88.1262 164.518 87.592 164.694 87.208C164.777 87.0411 164.845 86.9075 164.894 86.7962C164.943 86.6849 164.924 86.6515 164.928 86.6571Z" fill="#455A64"/>
<path d="M161.006 95.5332C160.617 94.4738 160.291 93.3863 160.028 92.2777C159.685 91.1984 159.405 90.0941 159.192 88.9722C159.648 90.0008 160.008 91.0806 160.268 92.1943C160.614 93.2754 160.861 94.3943 161.006 95.5332Z" fill="#455A64"/>
<path d="M174.978 137.91C174.947 137.815 174.927 137.716 174.919 137.615C174.897 137.389 174.862 137.105 174.817 136.764C174.729 135.979 174.616 134.911 174.474 133.614C174.205 130.92 173.844 127.264 173.443 123.224C173.042 119.184 172.714 115.483 172.513 112.818C172.42 111.516 172.342 110.447 172.284 109.662C172.284 109.312 172.244 109.028 172.23 108.8C172.223 108.7 172.223 108.599 172.23 108.499C172.261 108.594 172.279 108.694 172.284 108.794C172.308 109.022 172.342 109.306 172.381 109.651C172.46 110.436 172.567 111.499 172.694 112.801C172.954 115.494 173.306 119.156 173.672 123.196C174.039 127.236 174.386 130.893 174.651 133.592C174.758 134.894 174.851 135.962 174.915 136.747C174.939 137.092 174.959 137.381 174.973 137.609C174.982 137.709 174.984 137.81 174.978 137.91Z" fill="#455A64"/>
<path d="M170.215 15.0979C169.926 12.872 171.604 10.7295 173.54 10.4679C175.477 10.2064 177.428 11.5809 178.318 13.5898C178.732 14.6002 178.959 15.6968 178.984 16.8112C179.01 17.9257 178.833 19.0342 178.465 20.0674C177.976 21.4753 177.071 22.9 175.756 23.0113C174.44 23.1226 173.433 21.9817 172.562 20.93" fill="#263238"/>
<path d="M156.448 26.1387C152.536 16.3834 161.828 11.4807 166.88 13.1056C171.633 14.636 173.663 17.3294 174.445 20.9466C175.302 24.5756 175.131 28.4199 173.956 31.9318C173.34 33.6346 172.235 35.3598 170.631 35.5712" fill="#263238"/>
<path d="M169.912 18.5204C170.314 18.5678 170.686 18.786 170.953 19.1315C171.221 19.477 171.364 19.9244 171.354 20.3846L170.44 45.2153C170.406 48.148 166.645 49.8063 163.882 49.7396C161.099 49.6728 161.006 48.1146 160.948 45.3266C160.884 40.6688 160.884 38.9158 160.884 38.9436C160.884 38.9714 157.363 38.2758 156.634 33.0504C156.267 30.4516 156.385 26.1888 156.576 22.7052C156.752 19.5721 158.576 15.7212 161.324 16.0273L169.912 18.5204Z" fill="#FFBE9D"/>
<path d="M158.375 25.6768C158.373 25.8521 158.431 26.0215 158.537 26.1485C158.643 26.2755 158.789 26.3499 158.942 26.3558C159.018 26.3626 159.093 26.3522 159.165 26.3251C159.236 26.2981 159.302 26.255 159.358 26.1985C159.415 26.1419 159.461 26.073 159.494 25.9958C159.526 25.9186 159.545 25.8348 159.549 25.7492C159.55 25.5744 159.492 25.4058 159.386 25.2791C159.28 25.1524 159.135 25.0775 158.982 25.0703C158.907 25.0635 158.831 25.0739 158.76 25.1009C158.688 25.1279 158.622 25.171 158.566 25.2275C158.509 25.2841 158.463 25.353 158.43 25.4302C158.398 25.5074 158.379 25.5913 158.375 25.6768Z" fill="#263238"/>
<path d="M157.402 24.9255C157.475 25.0089 157.925 24.6361 158.556 24.6361C159.187 24.6361 159.656 24.9978 159.725 24.9088C159.793 24.8197 159.686 24.714 159.48 24.547C159.206 24.3313 158.88 24.2167 158.546 24.2187C158.217 24.2151 157.896 24.3343 157.632 24.5582C157.436 24.7251 157.368 24.8865 157.402 24.9255Z" fill="#263238"/>
<path d="M164.571 25.6767C164.57 25.8479 164.625 26.0134 164.727 26.1395C164.829 26.2656 164.969 26.3429 165.119 26.3556C165.194 26.3624 165.27 26.352 165.341 26.325C165.413 26.298 165.478 26.2549 165.535 26.1983C165.592 26.1417 165.638 26.0728 165.67 25.9957C165.703 25.9185 165.722 25.8346 165.725 25.749C165.727 25.5742 165.668 25.4056 165.563 25.2789C165.457 25.1522 165.312 25.0773 165.158 25.0701C165.01 25.0625 164.865 25.1221 164.755 25.2357C164.645 25.3494 164.579 25.5079 164.571 25.6767Z" fill="#263238"/>
<path d="M163.652 25.059C163.725 25.1425 164.17 24.7696 164.801 24.7696C165.432 24.7696 165.902 25.1313 165.97 25.0478C166.038 24.9644 165.931 24.8475 165.725 24.6806C165.451 24.4639 165.125 24.3492 164.791 24.3522C164.463 24.3522 164.142 24.4711 163.877 24.6917C163.652 24.8586 163.598 25.0256 163.652 25.059Z" fill="#263238"/>
<path d="M161.334 30.4069C161 30.2899 160.655 30.2189 160.307 30.1954C160.146 30.1954 159.989 30.1398 159.965 30.0174C159.949 29.8237 159.987 29.6294 160.072 29.4609C160.224 29.0157 160.38 28.5482 160.561 28.0585C161.005 26.8704 161.364 25.6441 161.637 24.3912C161.107 25.535 160.661 26.7262 160.302 27.9528L159.842 29.3663C159.741 29.589 159.712 29.8449 159.759 30.0897C159.784 30.1544 159.82 30.212 159.867 30.2583C159.913 30.3045 159.969 30.3382 160.028 30.3568C160.118 30.3838 160.21 30.3987 160.302 30.4014C160.644 30.4517 160.991 30.4536 161.334 30.4069Z" fill="#263238"/>
<path d="M160.899 38.9379C163.07 38.9829 165.209 38.3372 167.075 37.0736C167.075 37.0736 165.579 40.6685 160.982 40.1788L160.899 38.9379Z" fill="#EB996E"/>
<path d="M161.603 32.1432C161.724 31.9717 161.881 31.8379 162.06 31.7542C162.239 31.6705 162.433 31.6397 162.625 31.6646C162.766 31.678 162.902 31.7239 163.027 31.7995C163.151 31.8751 163.261 31.9788 163.349 32.1043C163.433 32.2243 163.483 32.3708 163.491 32.524C163.5 32.6773 163.467 32.8299 163.398 32.9613C163.296 33.0914 163.163 33.1838 163.014 33.2264C162.866 33.2691 162.71 33.2601 162.566 33.2006C162.265 33.0799 161.989 32.8906 161.754 32.6441C161.683 32.5866 161.622 32.5149 161.574 32.4326C161.551 32.3929 161.539 32.3465 161.539 32.299C161.539 32.2516 161.551 32.2052 161.574 32.1655" fill="#EB996E"/>
<path d="M163.202 30.9077C163.099 30.9077 163.094 31.6812 162.508 32.2377C161.921 32.7942 161.187 32.7052 161.182 32.7942C161.177 32.8833 161.344 32.9445 161.671 32.9556C162.075 32.9609 162.468 32.8054 162.782 32.516C163.079 32.2371 163.272 31.8387 163.319 31.403C163.324 31.0969 163.246 30.9021 163.202 30.9077Z" fill="#263238"/>
<path d="M163.349 23.7957C163.412 23.9905 164.048 23.8959 164.791 24.0016C165.535 24.1074 166.136 24.33 166.234 24.1575C166.278 24.074 166.17 23.8903 165.931 23.6956C165.608 23.4597 165.241 23.3147 164.86 23.2726C164.48 23.2186 164.094 23.2702 163.735 23.4229C163.461 23.5453 163.324 23.7011 163.349 23.7957Z" fill="#263238"/>
<path d="M157.637 22.8331C157.749 23.0001 158.185 22.8331 158.713 22.8331C159.241 22.8331 159.691 22.9444 159.784 22.7719C159.828 22.6884 159.784 22.5215 159.564 22.3712C159.306 22.1785 159.001 22.0831 158.693 22.0986C158.385 22.1058 158.086 22.2204 157.837 22.4269C157.651 22.5883 157.588 22.7552 157.637 22.8331Z" fill="#263238"/>
<path d="M163.618 14.3131C162.059 14.4036 160.545 14.9395 159.216 15.8713C158.471 16.3107 157.81 16.9128 157.269 17.6433C156.729 18.3738 156.32 19.2182 156.067 20.1285C156.003 20.3178 155.973 20.5201 155.98 20.723C155.986 20.9258 156.029 21.125 156.106 21.3082C156.251 21.5178 156.457 21.6631 156.686 21.719C156.915 21.7749 157.155 21.7378 157.363 21.6143C157.778 21.3578 158.13 20.9889 158.39 20.5403C158.493 21.0309 158.74 21.467 159.09 21.7771C159.439 22.0872 159.871 22.2529 160.315 22.2471C160.758 22.2413 161.186 22.0643 161.53 21.7451C161.873 21.4258 162.111 20.9834 162.204 20.4902C162.239 20.9915 162.443 21.4582 162.773 21.793C163.102 22.1278 163.533 22.305 163.975 22.2877C164.415 22.2443 164.835 22.0552 165.183 21.7438C165.531 21.4323 165.79 21.0121 165.931 20.5347C166.039 21.4396 166.314 22.3082 166.738 23.0835C166.955 23.4682 167.271 23.7676 167.643 23.9408C168.015 24.1141 168.424 24.1528 168.816 24.0517C168.652 24.8211 168.662 25.6253 168.846 26.389C169.09 27.1236 170.063 39.6947 170.719 39.4388C171.374 39.1828 171.349 26.3612 171.496 25.6155C171.821 24.1851 171.986 22.7134 171.985 21.2359C172.029 19.7138 171.595 18.2236 170.762 17.0318C169.929 15.8399 168.75 15.0242 167.437 14.7305C166.126 14.3883 164.781 14.2479 163.437 14.3131" fill="#263238"/>
<path d="M172.821 37.2074C172.821 37.2074 172.777 37.2407 172.68 37.2797C172.542 37.337 172.399 37.3762 172.254 37.3966C171.574 37.4948 170.883 37.3713 170.263 37.0402C169.642 36.7092 169.117 36.1843 168.748 35.5268C168.248 34.5361 168.037 33.3903 168.146 32.2546C168.22 31.0581 168.464 29.9674 168.577 28.9657C168.687 28.0765 168.756 27.1811 168.782 26.2834C168.782 25.5155 168.782 24.8978 168.782 24.4637C168.761 24.2417 168.761 24.0178 168.782 23.7959C168.84 24.0148 168.875 24.2409 168.885 24.4693C168.938 25.0776 168.964 25.6887 168.963 26.3001C168.962 27.2062 168.911 28.1113 168.811 29.0102C168.704 30.0342 168.474 31.1305 168.401 32.2824C168.296 33.3606 168.487 34.4492 168.948 35.3988C169.35 36.1547 169.968 36.7304 170.699 37.0293C171.19 37.2423 171.715 37.3334 172.24 37.2964C172.616 37.2686 172.817 37.1795 172.821 37.2074Z" fill="#263238"/>
<path d="M161.999 13.6399C162.177 14.0209 162.26 14.4501 162.239 14.8809C162.256 15.9354 161.905 16.9547 161.264 17.7159C160.622 18.4772 159.742 18.9184 158.815 18.9433C158.439 18.9843 158.06 18.9073 157.72 18.7207C157.72 18.6706 158.141 18.8041 158.806 18.7207C159.675 18.6535 160.491 18.221 161.096 17.5073C161.7 16.7935 162.05 15.8495 162.077 14.8586C162.092 14.1185 161.955 13.651 161.999 13.6399Z" fill="#455A64"/>
<path d="M162.674 19.7946C162.698 19.7946 162.64 20.1508 162.288 20.5403C162.054 20.7795 161.78 20.9625 161.482 21.0782C161.185 21.1939 160.87 21.24 160.556 21.2137C159.942 21.1512 159.349 20.9202 158.83 20.5403C158.434 20.2565 158.219 20.0395 158.238 19.9838C158.475 20.0686 158.702 20.1864 158.913 20.3344C159.429 20.6396 159.992 20.8285 160.571 20.8909C161.145 20.9294 161.713 20.732 162.17 20.3344C162.527 20.0784 162.645 19.7723 162.674 19.7946Z" fill="#455A64"/>
<path d="M173.751 18.1975C173.783 18.6766 173.754 19.1585 173.663 19.6277C173.524 20.79 173.138 21.8962 172.538 22.8498C172.224 23.3226 171.829 23.7176 171.377 24.0105C170.924 24.3033 170.424 24.4878 169.907 24.5526C169.592 24.5849 169.275 24.549 168.973 24.4469C168.762 24.3746 168.66 24.3022 168.665 24.2855C169.068 24.3676 169.479 24.3882 169.887 24.3467C170.86 24.167 171.735 23.5695 172.332 22.6773C172.905 21.7553 173.297 20.7038 173.482 19.5943C173.546 19.1228 173.636 18.6563 173.751 18.1975Z" fill="#455A64"/>
<path d="M174.592 20.7296C174.637 20.8727 174.661 21.0229 174.665 21.1748C174.698 21.5799 174.706 21.9871 174.69 22.3935C174.664 23.7629 174.233 25.0824 173.467 26.1387C173.034 26.7195 172.472 27.1561 171.838 27.402C171.319 27.5952 170.765 27.6336 170.23 27.5133C169.87 27.435 169.528 27.272 169.227 27.0347C169.022 26.8622 168.934 26.7342 168.943 26.723C169.345 27.0135 169.791 27.2138 170.259 27.3129C170.763 27.3954 171.278 27.3401 171.76 27.1515C172.348 26.9049 172.869 26.491 173.276 25.9495C174.003 24.9323 174.435 23.6844 174.513 22.3768C174.592 21.3696 174.548 20.7352 174.592 20.7296Z" fill="#455A64"/>
<path d="M110.132 87.9927L101.256 111.093H113.477L122.182 87.8091L110.132 87.9927Z" fill="#455A64"/>
<path d="M103.676 63.4236L113.687 85.828H145.259L143.983 82.9009L134.838 82.5892L127.38 63.7019C127.153 63.1265 126.785 62.638 126.32 62.2953C125.855 61.9527 125.313 61.7705 124.759 61.7709H104.566C104.393 61.7638 104.221 61.8092 104.069 61.9025C103.916 61.9957 103.788 62.1335 103.697 62.3016C103.607 62.4697 103.557 62.6622 103.553 62.8594C103.55 63.0565 103.592 63.2513 103.676 63.4236Z" fill="#E0E0E0"/>
<path d="M119.487 73.4683C119.487 73.7401 119.416 74.0059 119.283 74.2319C119.151 74.458 118.962 74.6342 118.741 74.7382C118.521 74.8422 118.278 74.8694 118.043 74.8164C117.809 74.7634 117.594 74.6325 117.425 74.4402C117.256 74.248 117.141 74.0031 117.094 73.7364C117.048 73.4698 117.072 73.1934 117.163 72.9423C117.254 72.6911 117.409 72.4764 117.608 72.3254C117.807 72.1744 118.04 72.0938 118.279 72.0938C118.599 72.0952 118.905 72.2405 119.132 72.498C119.358 72.7554 119.486 73.1042 119.487 73.4683Z" fill="#263238"/>
<path d="M148.624 85.8724H110.029V88.0149H148.624V85.8724Z" fill="#455A64"/>
<path d="M136.735 86.9464L148.477 111.115H154.091L155.314 108.349L156.439 105.439L148.624 88.0149L136.735 86.9464Z" fill="#455A64"/>
<path d="M157.138 45.51C157.138 45.51 150.321 48.2424 148.854 56.9237L156.052 61.0083L157.138 45.51Z" fill="#FF725E"/>
<path d="M157.138 45.5101C157.138 45.5101 152.37 57.675 152.551 64.3195C152.614 66.629 153.944 72.6669 153.944 72.6669L156.424 87.6143C156.424 87.6143 175.403 84.6927 175.824 84.6927C176.245 84.6927 175.188 72.4221 175.188 72.4221L178.284 48.8435C178.284 48.8435 176.866 45.6325 170.459 44.5196C166.62 43.8351 157.138 45.5101 157.138 45.5101Z" fill="#FF725E"/>
<path d="M155.338 52.5719C155.382 52.5997 154.884 53.5068 154.282 55.0761C153.933 55.9949 153.639 56.9394 153.402 57.9031C153.116 59.084 152.909 60.2875 152.781 61.5036C152.668 62.7216 152.634 63.9472 152.678 65.1709C152.722 66.17 152.825 67.1646 152.986 68.1481C153.26 69.8176 153.573 70.8415 153.524 70.8582C153.421 70.6367 153.34 70.4035 153.279 70.1626C153.192 69.887 153.117 69.6065 153.055 69.3223C152.976 68.9884 152.874 68.6156 152.805 68.2093C152.622 67.2187 152.501 66.2145 152.443 65.2043C152.385 63.9646 152.412 62.7216 152.526 61.4869C152.656 60.2539 152.874 59.035 153.177 57.8419C153.428 56.8719 153.744 55.9251 154.121 55.0093C154.258 54.6537 154.411 54.3063 154.58 53.9687C154.697 53.707 154.826 53.4525 154.967 53.2063C155.071 52.981 155.196 52.7685 155.338 52.5719Z" fill="#263238"/>
<path d="M159.446 45.3989L159.72 42.0599C159.75 41.7129 159.891 41.3906 160.117 41.1546C160.342 40.9185 160.636 40.7852 160.943 40.78L170.308 40.6186C170.592 40.6148 170.867 40.734 171.076 40.952C171.286 41.17 171.415 41.4706 171.438 41.7928L171.677 45.3933C170.893 47.2842 169.567 48.8151 167.916 49.734C165.163 51.2532 160.884 51.3033 160.884 51.3033L159.446 45.3989Z" fill="#FF725E"/>
<path d="M161.896 40.8078C161.926 40.8078 161.789 41.0248 161.73 41.3643C161.677 41.8559 161.677 42.353 161.73 42.8446C161.812 43.5613 161.812 44.2871 161.73 45.0038C161.562 44.3057 161.476 43.5851 161.476 42.8613C161.41 42.3459 161.43 41.8212 161.534 41.3142C161.696 40.9302 161.882 40.78 161.896 40.8078Z" fill="#263238"/>
<path d="M164.141 44.9369C163.977 44.2553 163.898 43.551 163.906 42.8445C163.87 42.3445 163.87 41.842 163.906 41.342C163.955 40.9413 164.097 40.7354 164.126 40.7855C164.156 40.8356 164.082 41.0192 164.087 41.3865C164.092 41.7538 164.141 42.2769 164.141 42.8334C164.223 43.5314 164.223 44.2389 164.141 44.9369Z" fill="#263238"/>
<path d="M166.953 44.848C166.751 44.1986 166.627 43.5208 166.586 42.8335C166.465 42.1526 166.428 41.456 166.474 40.7633C166.678 41.4177 166.802 42.1014 166.841 42.7945C166.96 43.47 166.997 44.1608 166.953 44.848Z" fill="#263238"/>
<path d="M169.379 45.0594C169.155 44.3442 169.036 43.5923 169.027 42.8334C168.933 42.0768 168.949 41.3078 169.075 40.5574C169.203 41.2907 169.272 42.0358 169.281 42.7833C169.376 43.5369 169.409 44.2989 169.379 45.0594Z" fill="#263238"/>
<g opacity="0.3">
<path d="M171.237 57.8086C170.86 61.5538 171.11 68.0091 172.274 71.5428L177.741 61.2644L171.237 57.8086Z" fill="black"/>
</g>
<path d="M177.775 48.0699L177.805 48.1033C179.355 49.9553 180.489 52.2062 181.111 54.6644L182.118 59.8898L171.359 61.7819C170.767 59.5655 170.626 57.2245 170.948 54.9371C171.477 50.9971 177.775 48.0699 177.775 48.0699Z" fill="#FF725E"/>
<path d="M182.118 59.8899C182.048 59.9179 181.976 59.9384 181.903 59.9511L181.287 60.0791L178.983 60.5076L171.188 61.8543H171.051V61.6929C171.027 60.9528 171.007 60.1848 170.992 59.3946C170.968 57.3411 170.992 55.3767 171.1 53.5904C171.175 51.9896 171.605 50.4366 172.352 49.0772C172.854 48.1629 173.541 47.3994 174.357 46.8513C174.577 46.7025 174.81 46.5794 175.051 46.484C175.132 46.4418 175.218 46.4137 175.306 46.4005C175.306 46.4005 174.963 46.5508 174.406 46.957C173.63 47.5228 172.979 48.2845 172.504 49.183C171.795 50.5338 171.392 52.0634 171.33 53.6349C171.217 55.4046 171.222 57.3634 171.252 59.4169C171.252 60.1959 171.286 60.9695 171.301 61.704L171.159 61.5649L178.983 60.3128L181.296 59.9734L181.922 59.8899C181.987 59.8803 182.053 59.8803 182.118 59.8899Z" fill="#263238"/>
<path d="M159.392 52.2159C158.845 51.853 158.342 51.4096 157.896 50.897C157.394 50.4558 156.946 49.9391 156.566 49.3611C157.616 50.1649 158.566 51.125 159.392 52.2159Z" fill="#FAFAFA"/>
<path d="M157.94 58.6544C157.556 59.1027 157.112 59.4785 156.625 59.7674C156.177 60.1367 155.682 60.4257 155.157 60.6244C155.987 59.8127 156.923 59.1519 157.93 58.6656L157.94 58.6544Z" fill="#FAFAFA"/>
<path d="M163.94 60.2405C163.854 59.4496 163.854 58.6495 163.94 57.8587C163.944 57.0636 164.029 56.2717 164.195 55.4991C164.28 56.2882 164.28 57.0863 164.195 57.8754C164.193 58.6724 164.108 59.4664 163.94 60.2405Z" fill="#FAFAFA"/>
<path d="M169.775 66.679C169.288 66.1592 168.834 65.6013 168.415 65.0096C167.934 64.4882 167.485 63.9304 167.07 63.3401C167.657 63.7276 168.176 64.2351 168.601 64.837C169.085 65.3672 169.482 65.9909 169.775 66.679Z" fill="#FAFAFA"/>
<path d="M170.596 53.2175C170.177 53.7143 169.698 54.1415 169.173 54.4863C168.693 54.907 168.165 55.2514 167.603 55.5103C168.024 55.0126 168.505 54.5854 169.031 54.2415C169.511 53.8231 170.037 53.4788 170.596 53.2175Z" fill="#FAFAFA"/>
<path d="M165.324 48.3481C164.86 48.8619 164.337 49.3018 163.769 49.6559C163.249 50.0945 162.68 50.4537 162.077 50.7244C162.542 50.2097 163.065 49.7681 163.632 49.411C164.155 48.9778 164.724 48.6207 165.324 48.3481Z" fill="#FAFAFA"/>
<path d="M170.078 50.2849C169.758 49.7462 169.507 49.1577 169.335 48.5375C169.094 47.9479 168.929 47.3219 168.846 46.6788C169.17 47.217 169.421 47.808 169.589 48.4318C169.832 49.0182 169.997 49.6428 170.078 50.2849Z" fill="#FAFAFA"/>
<path d="M176.616 52.7278C175.834 52.1108 175.155 51.34 174.611 50.4518C175.025 50.7212 175.395 51.0716 175.702 51.4869C176.07 51.834 176.38 52.2545 176.616 52.7278Z" fill="#FAFAFA"/>
<path d="M173.922 58.1537C173.766 57.604 173.695 57.028 173.711 56.4508C173.639 55.8809 173.653 55.3009 173.755 54.7368C173.98 55.8569 174.036 57.0122 173.922 58.1537Z" fill="#FAFAFA"/>
<path d="M179.355 57.0294C178.786 57.1326 178.205 57.1099 177.643 56.9626C177.07 56.9093 176.511 56.7337 175.995 56.4451C176.564 56.4519 177.129 56.5303 177.683 56.6788C178.249 56.7275 178.81 56.8451 179.355 57.0294Z" fill="#FAFAFA"/>
<path d="M157.446 68.2429C157.047 67.6146 156.719 66.9323 156.468 66.2117C156.14 65.5317 155.887 64.8084 155.715 64.0581C156.114 64.6864 156.442 65.3687 156.693 66.0893C157.022 66.7688 157.275 67.4922 157.446 68.2429Z" fill="#FAFAFA"/>
<path d="M164.63 77.0243C164.171 76.5491 163.771 76.0042 163.442 75.4049C163.049 74.8583 162.72 74.256 162.464 73.613C162.924 74.0887 163.326 74.6335 163.657 75.2324C164.052 75.7764 164.379 76.3793 164.63 77.0243Z" fill="#FAFAFA"/>
<path d="M170.567 73.3403C170.064 73.7137 169.517 74.0059 168.943 74.2085C168.4 74.5005 167.821 74.7011 167.227 74.8039C168.273 74.1366 169.398 73.6437 170.567 73.3403Z" fill="#FAFAFA"/>
<path d="M155.94 80.4522C156.175 79.4022 156.57 78.4076 157.109 77.5139C157.026 78.0528 156.86 78.5708 156.62 79.0443C156.467 79.5553 156.237 80.0319 155.94 80.4522Z" fill="#FAFAFA"/>
<path d="M151.338 55.3044C151.055 54.8968 150.885 54.4029 150.849 53.8853C150.734 53.3837 150.754 52.8542 150.908 52.3661C151.008 52.8488 151.074 53.3402 151.103 53.8352C151.216 54.3169 151.295 54.8082 151.338 55.3044Z" fill="#FAFAFA"/>
<path d="M159.51 74.8206C158.988 74.664 158.492 74.4102 158.043 74.0693C157.556 73.8176 157.107 73.4795 156.713 73.0676C157.234 73.2267 157.729 73.4804 158.18 73.8189C158.665 74.0747 159.113 74.4124 159.51 74.8206Z" fill="#FAFAFA"/>
<path d="M164.229 65.5494C163.427 66.6423 162.495 67.6031 161.461 68.4042C161.832 67.8282 162.27 67.3116 162.762 66.8683C163.196 66.3547 163.689 65.9109 164.229 65.5494Z" fill="#FAFAFA"/>
<g opacity="0.3">
<path d="M161.339 65.3768C161.576 67.3167 162.336 69.125 163.515 70.5522C164.738 71.91 166.63 72.5945 168.22 71.8878C168.393 71.8334 168.553 71.7322 168.685 71.5927C168.817 71.4532 168.917 71.2795 168.978 71.0864C169.004 70.8491 168.958 70.6085 168.847 70.4056C168.735 70.2027 168.565 70.05 168.366 69.9735C167.97 69.8285 167.555 69.7608 167.139 69.7731C165.953 69.6846 164.807 69.2526 163.809 68.5183C162.811 67.7839 161.994 66.7715 161.437 65.5772" fill="black"/>
</g>
<path d="M167.696 69.8622C167.696 69.8622 167.584 69.9067 167.369 69.929C167.066 69.9637 166.761 69.9637 166.459 69.929C166.01 69.8689 165.568 69.7494 165.144 69.5728C164.095 69.1438 163.164 68.4088 162.444 67.4414C162.152 67.0494 161.901 66.6198 161.696 66.1615C161.552 65.8561 161.439 65.5332 161.358 65.1988C161.319 65.0794 161.298 64.9534 161.295 64.8259C161.344 64.8259 161.476 65.3268 161.852 66.0613C162.073 66.4899 162.33 66.8926 162.62 67.2634C162.98 67.7144 163.381 68.1194 163.818 68.471C164.26 68.8113 164.732 69.0968 165.227 69.3224C165.633 69.504 166.054 69.6383 166.484 69.7231C167.222 69.8455 167.696 69.8065 167.696 69.8622Z" fill="#263238"/>
<path d="M140.775 78.8329L147.856 77.8924L152.849 81.6153L171.922 76.4066L172.371 61.5371L180.847 60.2683V78.2708C180.799 80.4564 179.992 82.5313 178.602 84.0408C177.212 85.5503 175.353 86.3711 173.433 86.3233L145.479 85.4384L144.291 82.7339L138.29 82.528L140.775 78.8329Z" fill="#FFBE9D"/>
<path d="M171.697 76.3787C171.579 76.4319 171.458 76.4747 171.335 76.5067L170.298 76.8127L166.469 77.8923L153.813 81.3815L152.634 81.7043H152.585H152.546L147.558 77.9702H147.626L140.54 78.9051L140.589 78.8717L138.711 81.5819L138.222 82.2942C138.168 82.3795 138.105 82.4579 138.036 82.5279C138.082 82.4371 138.132 82.3497 138.188 82.2663L138.677 81.5318L140.496 78.7827H140.525L147.602 77.7755H147.641H147.67L152.668 81.4928H152.58L153.759 81.1701L166.43 77.7532L170.278 76.7459L171.325 76.4844C171.446 76.4381 171.571 76.4028 171.697 76.3787Z" fill="#EB996E"/>
<path d="M144.643 81.1424C143.729 81.264 142.809 81.3049 141.89 81.2648H141.401L141.469 81.237C140.916 81.8156 140.319 82.3371 139.684 82.7951C140.188 82.1619 140.738 81.5774 141.327 81.0478L141.357 81.0144H141.9C142.816 80.9715 143.733 81.0143 144.643 81.1424Z" fill="#EB996E"/>
<path d="M175.213 78.8107C174.848 78.1561 174.375 77.589 173.819 77.1412C173.229 76.762 172.579 76.5199 171.907 76.4289C172.105 76.3508 172.317 76.3317 172.523 76.3732C173.022 76.4332 173.503 76.6237 173.927 76.9296C174.351 77.2356 174.708 77.6489 174.968 78.1373C175.1 78.3335 175.185 78.5657 175.213 78.8107Z" fill="#EB996E"/>
<path d="M52.9088 197.688H20.9746V202.68H52.9088V197.688Z" fill="#263238"/>
<path d="M52.9626 202.747H20.9208V197.627H52.9626V202.747ZM21.0284 202.619H52.855V197.75H21.0284V202.619Z" fill="#263238"/>
<path d="M23.9382 201.022L28.5303 226.826H45.5391L49.9844 202.686L23.9382 201.022Z" fill="#263238"/>
<path d="M23.9382 224.383L26.3883 228.223H47.06L49.9844 224.383H23.9382Z" fill="#455A64"/>
<path d="M35.7437 201.773C35.6801 201.773 35.6018 189.82 35.5627 175.061C35.5236 160.303 35.5627 148.35 35.6116 148.35C35.6605 148.35 35.7534 160.303 35.7926 175.061C35.8317 189.82 35.8072 201.773 35.7437 201.773Z" fill="#263238"/>
<path d="M42.8591 171.856C42.8378 171.952 42.8083 172.045 42.7711 172.134C42.6977 172.34 42.5999 172.596 42.4874 172.908C42.4238 173.08 42.3554 173.264 42.2771 173.464C42.1989 173.665 42.1402 173.904 42.0668 174.143L41.8174 174.922C41.7343 175.201 41.6658 175.479 41.5827 175.813C41.2033 177.274 40.9044 178.761 40.6877 180.265C40.4423 182.109 40.2791 183.966 40.1987 185.83C40.0832 189.219 40.1682 192.614 40.453 195.991C40.5557 197.293 40.6584 198.34 40.7367 199.063C40.766 199.402 40.7953 199.681 40.8149 199.898C40.8215 199.996 40.8215 200.094 40.8149 200.193C40.7841 200.1 40.7643 200.002 40.7562 199.903C40.722 199.686 40.6829 199.414 40.6339 199.08C40.5313 198.356 40.3992 197.31 40.277 196.013C39.9444 192.629 39.8381 189.221 39.9591 185.818C40.0316 183.945 40.1949 182.078 40.4481 180.226C40.6743 178.719 40.9913 177.231 41.3968 175.774C41.4849 175.462 41.5582 175.162 41.6463 174.889L41.9103 174.11L42.1451 173.437C42.2233 173.231 42.3016 173.053 42.37 172.88L42.6977 172.123C42.7387 172.025 42.7932 171.935 42.8591 171.856Z" fill="#263238"/>
<path d="M42.0424 162.19C42.0153 162.324 41.981 162.456 41.9397 162.585C41.8565 162.858 41.7441 163.23 41.6071 163.698L41.3626 164.499C41.2844 164.8 41.1963 165.123 41.1034 165.468C40.9176 166.158 40.7024 166.942 40.5117 167.827L40.1889 169.213C40.0911 169.697 39.9933 170.203 39.8906 170.721C39.6656 171.761 39.5043 172.891 39.2989 174.06C38.9468 176.43 38.6387 179.068 38.4235 181.823C38.2083 184.577 38.135 187.243 38.1056 189.653C38.0763 192.062 38.1056 194.233 38.2132 196.052C38.2377 196.965 38.2915 197.783 38.3306 198.506C38.3697 199.23 38.4088 199.853 38.4479 200.36C38.4871 200.866 38.5066 201.239 38.5262 201.534C38.5327 201.669 38.5327 201.805 38.5262 201.94C38.4948 201.809 38.4751 201.675 38.4675 201.539C38.4382 201.244 38.399 200.86 38.3452 200.371C38.2915 199.881 38.2377 199.258 38.1887 198.518C38.1398 197.777 38.0763 196.976 38.0371 196.063C37.9296 194.238 37.8856 192.068 37.8807 189.653C37.8758 187.238 37.9785 184.583 38.1839 181.806C38.3893 179.029 38.7169 176.397 39.0788 174.015C39.2891 172.83 39.4603 171.7 39.6901 170.676C39.7977 170.153 39.9053 169.647 40.0031 169.163L40.3405 167.783C40.541 166.898 40.7709 166.113 40.9714 165.423C41.0692 165.078 41.1621 164.761 41.2452 164.46C41.3284 164.16 41.4262 163.904 41.5093 163.665L41.881 162.552C41.9227 162.424 41.9768 162.303 42.0424 162.19Z" fill="#263238"/>
<path d="M33.724 203.888C33.7189 203.842 33.7189 203.795 33.724 203.749C33.724 203.643 33.724 203.509 33.6946 203.337C33.6702 202.958 33.6408 202.43 33.6017 201.756C33.5235 200.36 33.4159 198.378 33.2789 195.93C33.0051 191.016 32.6041 184.244 31.8754 176.759C31.5037 173.019 31.0734 169.474 30.6235 166.258C30.3887 164.655 30.1736 163.13 29.9241 161.706C29.6747 160.281 29.4351 158.962 29.2395 157.755C29.0439 156.547 28.7945 155.467 28.6037 154.516C28.413 153.564 28.2418 152.741 28.1147 152.073C27.9875 151.405 27.8653 150.904 27.7822 150.531C27.7528 150.37 27.7235 150.236 27.7039 150.131C27.6964 150.085 27.6964 150.037 27.7039 149.991C27.724 150.033 27.7389 150.078 27.7479 150.125L27.8457 150.52C27.9386 150.887 28.0609 151.399 28.2223 152.05C28.3837 152.702 28.5744 153.525 28.7749 154.482C28.9754 155.44 29.2199 156.514 29.44 157.721C29.6601 158.929 29.929 160.242 30.154 161.667C30.3789 163.091 30.643 164.616 30.8778 166.224C31.3375 169.441 31.7727 172.991 32.1444 176.725C32.873 184.205 33.2496 190.999 33.4843 195.919C33.6017 198.384 33.6848 200.371 33.7337 201.751C33.7337 202.424 33.7729 202.953 33.7827 203.337C33.7827 203.504 33.7827 203.643 33.7827 203.749C33.7693 203.798 33.7495 203.845 33.724 203.888Z" fill="#263238"/>
<path d="M35.4845 154.132C35.3426 152.462 33.8413 151.16 32.3448 151.143C31.5963 151.181 30.8652 151.412 30.2068 151.819C29.5484 152.226 28.9801 152.798 28.545 153.492C27.6842 154.889 27.0621 156.458 26.7111 158.116C25.7037 162.106 25.156 166.297 25.5863 170.42C26.0167 174.544 27.4838 178.601 30.0855 181.511C30.506 181.99 31.0635 182.463 31.6357 182.318C31.9453 182.215 32.2266 182.024 32.4524 181.762C34.9988 179.109 37.0171 175.866 38.3717 172.253C39.7263 168.639 40.386 164.737 40.3064 160.81C40.2672 159.246 40.0863 157.61 39.3283 156.308C38.5703 155.005 36.7853 153.614 35.4893 154.137" fill="#FF725E"/>
<path d="M24.3197 140.553L22.2169 144.894C22.168 144.994 22.1044 145.111 22.0017 145.117C21.899 145.122 21.8061 145.011 21.7474 144.905L16.1821 135.211L17.4634 134.382L24.3197 140.553Z" fill="#FF725E"/>
<g opacity="0.2">
<path d="M24.3197 140.553L22.2169 144.894C22.168 144.994 22.1044 145.111 22.0017 145.117C21.899 145.122 21.8061 145.011 21.7474 144.905L16.1821 135.211L17.4634 134.382L24.3197 140.553Z" fill="black"/>
</g>
<path d="M35.6116 148.372L16.6271 135.623C16.5191 135.576 16.4203 135.505 16.3364 135.414C16.2524 135.323 16.1851 135.215 16.1381 135.094C16.0647 134.777 16.275 134.465 16.4755 134.226C17.7818 132.686 19.3643 131.483 21.1152 130.701C22.8662 129.918 24.7447 129.574 26.6231 129.691C28.5007 129.844 30.3172 130.516 31.9156 131.647C33.5141 132.779 34.8464 134.336 35.7974 136.185C37.6264 139.908 37.69 144.838 35.5872 148.372" fill="#FF725E"/>
<path d="M19.3853 131.555C19.4664 131.529 19.5505 131.518 19.6347 131.522C19.796 131.522 20.0406 131.477 20.3536 131.483C21.235 131.469 22.1157 131.547 22.9846 131.716C24.2791 131.969 25.5408 132.404 26.7404 133.013C28.8108 134.073 30.6495 135.641 32.1249 137.605C33.6002 139.568 34.6757 141.879 35.2741 144.371C35.5191 145.338 35.6828 146.329 35.7632 147.331C35.8023 147.682 35.7925 147.96 35.8023 148.15C35.8107 148.244 35.8107 148.339 35.8023 148.433C35.8023 148.433 35.7583 148.044 35.68 147.32C35.5717 146.332 35.3934 145.355 35.147 144.399C34.3509 141.227 32.7893 138.372 30.6395 136.159C28.4897 133.946 25.8377 132.462 22.9846 131.878C22.1247 131.692 21.253 131.586 20.378 131.56C19.708 131.566 19.3853 131.577 19.3853 131.555Z" fill="#263238"/>
<path d="M33.0393 139.574C32.7333 139.786 32.4046 139.952 32.0612 140.069C31.4548 140.342 30.5941 140.687 29.6649 141.032C28.7358 141.377 27.8555 141.644 27.2197 141.822C26.8824 141.939 26.5347 142.014 26.183 142.045C26.4958 141.873 26.8236 141.738 27.1611 141.644L29.5769 140.781L31.9879 139.897C32.3281 139.75 32.6803 139.642 33.0393 139.574Z" fill="#263238"/>
<path d="M30.0512 130.436C30.2211 131.224 30.2968 132.035 30.2762 132.846C30.332 133.655 30.2925 134.469 30.1588 135.267C30.0671 134.466 30.0311 133.658 30.0512 132.851C29.9953 132.048 29.9953 131.24 30.0512 130.436Z" fill="#263238"/>
<path d="M16.451 135.384C16.8952 135.152 17.3568 134.965 17.8301 134.827C18.6908 134.521 19.8939 134.137 21.2534 133.77C22.6129 133.403 23.816 133.124 24.6767 132.946C25.1591 132.824 25.65 132.749 26.1438 132.724C25.6795 132.893 25.2057 133.027 24.7256 133.124C23.8453 133.347 22.6325 133.681 21.3023 134.026C19.9721 134.371 18.7642 134.744 17.879 135C17.411 135.163 16.934 135.292 16.451 135.384Z" fill="#263238"/>
<path d="M26.8578 150.114C25.2244 148.706 23.4981 148.444 21.449 148.517C19.3996 148.665 17.3927 149.248 15.5316 150.236C12.3284 151.828 9.32086 154.182 7.40872 157.51C5.49658 160.837 4.82659 165.245 6.25948 168.873C6.37222 169.253 6.60374 169.572 6.90989 169.769C7.26556 169.882 7.64478 169.848 7.98089 169.675C11.6242 168.322 15.2871 166.959 18.637 164.844C21.9869 162.73 25.0337 159.786 26.8284 155.94C27.288 155.043 27.5841 154.049 27.6989 153.019C27.7479 152.497 27.6986 151.97 27.5544 151.472C27.4102 150.974 27.1744 150.517 26.8627 150.131" fill="#FF725E"/>
<path d="M26.8871 149.68C26.8055 149.733 26.7185 149.774 26.6279 149.802L25.865 150.103L25.3124 150.309C25.1119 150.392 24.8967 150.492 24.6669 150.598C24.2072 150.81 23.6888 151.021 23.1068 151.333L22.2168 151.795C21.9038 151.956 21.5957 152.156 21.268 152.351C20.6078 152.718 19.9428 153.191 19.2288 153.67C16.1792 155.821 13.4654 158.535 11.1987 161.7C10.7097 162.44 10.1962 163.136 9.79032 163.837C9.58003 164.182 9.36974 164.505 9.18391 164.833L8.69487 165.779C8.35254 166.375 8.09824 166.953 7.85372 167.449C7.73635 167.694 7.61898 167.922 7.52118 168.139C7.42337 168.356 7.34513 168.551 7.27177 168.734L6.90988 169.558C6.87579 169.657 6.82971 169.751 6.77295 169.836C6.79677 169.732 6.82954 169.632 6.87076 169.536L7.18863 168.69C7.26199 168.506 7.34023 168.306 7.42337 168.083C7.50651 167.861 7.62877 167.632 7.74125 167.382C7.97599 166.876 8.23028 166.269 8.55305 165.685C8.71932 165.379 8.88559 165.056 9.04209 164.722C9.19858 164.388 9.43332 164.065 9.63871 163.715C10.0397 163.002 10.5337 162.301 11.0374 161.55C12.1771 159.956 13.4265 158.467 14.7736 157.098C16.1357 155.751 17.5913 154.533 19.1261 153.453C19.8449 152.974 20.5198 152.507 21.1849 152.145C21.5175 151.956 21.8304 151.761 22.163 151.589L23.0677 151.144C23.6399 150.837 24.1778 150.637 24.6473 150.437C24.882 150.342 25.0972 150.248 25.3026 150.17L25.8601 149.98L26.6377 149.73C26.7196 149.706 26.803 149.69 26.8871 149.68Z" fill="#263238"/>
<path d="M14.133 157.537C12.8328 158.101 11.5073 158.586 10.162 158.99C8.83698 159.48 7.48827 159.883 6.12256 160.198C7.42275 159.634 8.74827 159.149 10.0936 158.745C11.4194 158.258 12.768 157.855 14.133 157.537Z" fill="#263238"/>
<path d="M13.9667 167.488C13.9 167.022 13.8705 166.551 13.8786 166.08C13.8786 165.212 13.8786 164.004 13.8786 162.679C13.8786 161.355 13.9765 160.147 14.04 159.279C14.05 158.807 14.1024 158.337 14.1965 157.877C14.2294 158.347 14.2294 158.82 14.1965 159.29C14.1672 160.242 14.1378 161.4 14.1036 162.685C14.0694 163.971 14.0498 165.128 14.0254 166.08C14.0437 166.55 14.024 167.021 13.9667 167.488Z" fill="#263238"/>
<path d="M21.4783 163.158C21.4147 163.158 21.2142 160.715 21.0333 157.693C20.8523 154.672 20.7496 152.217 20.8132 152.217C20.8768 152.217 21.0724 154.655 21.2582 157.677C21.4441 160.698 21.5419 163.152 21.4783 163.158Z" fill="#263238"/>
<path d="M12.1328 151.978C12.5545 151.917 12.9802 151.903 13.4043 151.934C14.1868 151.934 15.2724 151.967 16.4706 152.011C17.6687 152.056 18.7495 152.112 19.532 152.162C19.9568 152.168 20.3805 152.215 20.7986 152.301C20.3769 152.361 19.9512 152.376 19.5271 152.345C18.7446 152.345 17.6589 152.318 16.4608 152.267C15.2627 152.217 14.1819 152.167 13.3945 152.117C12.9713 152.112 12.5492 152.065 12.1328 151.978Z" fill="#263238"/>
<path d="M30.902 182.669C30.8803 182.57 30.8704 182.469 30.8727 182.368C30.8727 182.151 30.8727 181.867 30.8385 181.522C30.8091 180.782 30.8042 179.719 30.8385 178.395C30.8727 177.07 30.9363 175.507 31.0732 173.77C31.2101 172.034 31.4351 170.125 31.7432 168.139C32.0513 166.152 32.4327 164.288 32.8191 162.574C33.2054 160.86 33.626 159.385 34.0074 158.122C34.3889 156.859 34.7116 155.896 34.9855 155.195C35.1029 154.872 35.1958 154.638 35.274 154.41C35.304 154.317 35.3417 154.228 35.3865 154.143C35.3758 154.241 35.351 154.337 35.3132 154.427L35.0344 155.245C34.8094 155.935 34.5013 156.914 34.1443 158.194C33.7873 159.474 33.3961 160.977 33.0098 162.646C32.6234 164.315 32.2616 166.196 31.9486 168.178C31.6356 170.159 31.4253 172.073 31.2688 173.781C31.1123 175.49 31.0243 177.076 30.9852 178.389C30.946 179.703 30.9216 180.771 30.9216 181.511C30.9216 181.856 30.9216 182.134 30.9216 182.357C30.9215 182.461 30.915 182.565 30.902 182.669Z" fill="#263238"/>
<path d="M31.8998 167.927C31.6778 168.273 31.4236 168.59 31.1418 168.873C30.6527 169.43 29.9534 170.175 29.1612 170.971C28.3689 171.767 27.6207 172.452 27.0681 172.936C26.7854 173.215 26.4772 173.46 26.1487 173.665C26.3976 173.344 26.6727 173.052 26.9703 172.791L29.0096 170.776L31.0342 168.74C31.2993 168.438 31.5892 168.166 31.8998 167.927Z" fill="#263238"/>
<path d="M37.9102 173.431C37.6127 173.032 37.343 172.608 37.1032 172.162L35.2302 169.046L33.3132 165.963C33.0289 165.551 32.7722 165.116 32.5454 164.661C32.8764 165.024 33.176 165.423 33.4404 165.852C33.9685 166.614 34.6727 167.682 35.3965 168.901C36.1203 170.12 36.7756 171.238 37.2206 172.062C37.4876 172.493 37.7185 172.951 37.9102 173.431Z" fill="#263238"/>
<path d="M34.7606 156.107C34.7949 156.168 32.8045 157.699 30.3055 159.524C27.8065 161.349 25.7574 162.785 25.7232 162.724C25.689 162.663 27.6794 161.132 30.1832 159.307C32.6871 157.482 34.7313 156.052 34.7606 156.107Z" fill="#263238"/>
<path d="M40.4139 163.036C39.36 162.037 38.3529 160.977 37.3965 159.858C36.3895 158.806 35.4344 157.691 34.5356 156.519C35.5933 157.515 36.6022 158.576 37.5579 159.697C38.5655 160.746 39.5191 161.861 40.4139 163.036Z" fill="#263238"/>
<path d="M41.8076 162.885L43.5193 162.724C44.7364 162.61 45.9176 162.199 46.9816 161.516C47.5024 161.171 48.0414 160.862 48.5955 160.593C50.713 159.63 53.0799 159.802 55.3589 159.669C59.0928 159.455 62.7511 158.391 66.1177 156.541C66.3199 156.44 66.4904 156.271 66.6067 156.057C66.9589 155.328 66.3035 154.677 65.7411 154.282C62.8509 152.256 59.9118 150.208 56.6401 149.201C53.3685 148.194 49.6469 148.366 46.8594 150.553C43.5828 153.124 42.3847 158.4 41.8321 162.885" fill="#FF725E"/>
<path d="M66.6216 155.801C66.523 155.755 66.4267 155.703 66.3331 155.645L65.5213 155.161C64.8171 154.738 63.8048 154.115 62.5186 153.419C61.0289 152.582 59.4756 151.9 57.8776 151.383C55.9234 150.743 53.8768 150.554 51.8575 150.826C49.8354 151.082 47.9257 152.016 46.3705 153.509C45.1558 154.793 44.1841 156.346 43.5145 158.072C42.913 159.535 42.5365 160.782 42.2724 161.628L41.9643 162.613C41.934 162.73 41.8947 162.843 41.8469 162.952C41.861 162.831 41.8856 162.712 41.9203 162.596C41.9887 162.346 42.0768 162.012 42.1844 161.6C42.5107 160.384 42.8994 159.191 43.3483 158.027C44.0073 156.261 44.9834 154.67 46.214 153.358C47.791 151.812 49.7405 150.843 51.8086 150.576C53.8553 150.294 55.9307 150.484 57.9118 151.132C59.5188 151.669 61.0789 152.373 62.5724 153.236C63.8488 153.959 64.8513 154.605 65.5457 155.056L66.338 155.584C66.4402 155.643 66.5355 155.716 66.6216 155.801Z" fill="#263238"/>
<path d="M62.5087 158.333C62.4745 158.389 60.2298 156.742 57.5009 154.649C54.7721 152.557 52.5861 150.809 52.6106 150.754C52.635 150.698 54.8846 152.345 57.6134 154.438C60.3422 156.53 62.5429 158.272 62.5087 158.333Z" fill="#263238"/>
<path d="M60.3568 150.503C59.2148 150.912 58.0095 151.039 56.821 150.876C57.4022 150.739 57.9931 150.66 58.5865 150.643C59.1719 150.538 59.7643 150.492 60.3568 150.503Z" fill="#263238"/>
<path d="M50.3073 148.456C49.8796 149.607 49.3188 150.689 48.6396 151.672C48.8147 151.079 49.0616 150.518 49.3732 150.003C49.6185 149.439 49.933 148.918 50.3073 148.456Z" fill="#263238"/>
<path d="M52.3122 159.836C51.934 159.657 51.5735 159.433 51.2363 159.168C50.5859 158.723 49.7105 158.055 48.7911 157.293C47.8717 156.53 47.0354 155.79 46.4388 155.256C46.1048 154.987 45.7938 154.684 45.5096 154.349C45.873 154.564 46.217 154.82 46.5366 155.111L48.928 157.087C49.8572 157.855 50.713 158.528 51.339 159.018C51.6837 159.258 52.0094 159.531 52.3122 159.836Z" fill="#263238"/>
<path d="M44.3262 171.172C42.6928 170.676 40.7415 172.485 40.4139 174.371C40.0862 176.258 40.7024 178.183 41.4262 179.936C42.9837 183.829 45.2941 187.27 48.1847 190.003C51.1003 192.724 54.7383 194.244 58.5083 194.316C57.8188 190.665 58.6893 186.848 58.3078 183.136C57.967 179.867 56.6618 176.826 54.6054 174.51C52.5489 172.194 49.863 170.741 46.9866 170.387C45.9449 170.259 44.737 170.075 44.3213 171.172" fill="#FF725E"/>
<path d="M58.5083 194.316C58.4263 194.285 58.3476 194.244 58.2735 194.194C58.0594 194.056 57.855 193.9 57.6622 193.726C56.9773 193.048 56.4272 192.211 56.0484 191.272C55.7892 190.716 55.4958 190.07 55.2121 189.374C54.9285 188.679 54.6449 187.944 54.3319 187.148C54.0182 186.334 53.6571 185.544 53.2511 184.783C52.8157 183.973 52.3251 183.203 51.784 182.48C50.669 180.988 49.4659 179.697 48.4243 178.456C47.4825 177.376 46.6251 176.205 45.8617 174.956C45.3503 174.109 44.93 173.195 44.6098 172.235C44.5071 171.895 44.4289 171.622 44.3897 171.439C44.3626 171.347 44.3462 171.252 44.3408 171.155C44.3408 171.155 44.4533 171.533 44.6929 172.201C45.0417 173.136 45.4778 174.026 45.9938 174.856C46.7717 176.077 47.6353 177.226 48.5759 178.289C49.6224 179.513 50.8304 180.804 51.96 182.313C52.5137 183.046 53.0157 183.827 53.4614 184.65C53.8657 185.423 54.2267 186.224 54.5422 187.048L55.4029 189.274C55.6767 189.964 55.9604 190.599 56.2147 191.172C56.5716 192.103 57.0907 192.941 57.7405 193.637C58.2099 194.116 58.5327 194.294 58.5083 194.316Z" fill="#263238"/>
<path d="M50.0626 191.283C50.0724 190.861 50.1233 190.441 50.2142 190.031C50.3414 189.263 50.5517 188.211 50.8353 187.065C51.1189 185.919 51.4221 184.9 51.6667 184.171C51.7737 183.766 51.9231 183.378 52.1117 183.014C52.0456 183.427 51.9474 183.833 51.8183 184.227C51.6129 184.973 51.3292 185.996 51.0554 187.137C50.7815 188.278 50.5663 189.313 50.3707 190.07C50.3033 190.485 50.2001 190.891 50.0626 191.283Z" fill="#263238"/>
<path d="M58.21 182.318C57.8185 182.253 57.4325 182.15 57.0559 182.012C56.3517 181.806 55.3785 181.517 54.2977 181.238C53.2169 180.96 52.2291 180.749 51.5151 180.593C51.1236 180.536 50.7373 180.439 50.361 180.304C50.7562 180.292 51.1514 180.329 51.5395 180.415C52.2633 180.521 53.261 180.71 54.3466 180.971C55.4323 181.233 56.4055 181.567 57.0999 181.823C57.484 181.944 57.8561 182.11 58.21 182.318Z" fill="#263238"/>
<path d="M43.9985 184.922C44.017 184.433 44.0759 183.947 44.1746 183.47C44.3213 182.585 44.5463 181.361 44.8544 180.031C45.1624 178.701 45.4852 177.504 45.7395 176.647C45.865 176.177 46.0288 175.72 46.2285 175.284C46.1575 175.766 46.0529 176.24 45.9156 176.703C45.7004 177.571 45.3972 178.768 45.094 180.092C44.7908 181.417 44.5365 182.635 44.3555 183.509C44.2721 183.991 44.1527 184.464 43.9985 184.922Z" fill="#263238"/>
<path d="M54.4592 174.505C54.4592 174.572 52.4101 174.388 49.9013 174.082C47.3926 173.776 45.3582 173.475 45.368 173.409C46.8925 173.459 48.4138 173.598 49.9258 173.826C51.4461 173.964 52.9592 174.191 54.4592 174.505Z" fill="#263238"/>
<path d="M52.9626 202.664C52.9626 202.736 45.7884 202.792 36.9417 202.792C28.095 202.792 20.9208 202.736 20.9208 202.664C20.9208 202.591 28.095 202.536 36.9417 202.536C45.7884 202.536 52.9626 202.591 52.9626 202.664Z" fill="#455A64"/>
<path d="M47.9745 213.164C47.9745 213.237 43.1379 213.298 37.1765 213.298C31.2151 213.298 26.3834 213.237 26.3834 213.164C26.3834 213.092 31.2151 213.036 37.1765 213.036C43.1379 213.036 47.9745 213.12 47.9745 213.164Z" fill="#455A64"/>
<path d="M48.1604 214.667C48.1604 214.739 43.3287 214.795 37.3673 214.795C31.4059 214.795 26.5742 214.739 26.5742 214.667C26.5742 214.595 31.4059 214.539 37.3673 214.539C43.3287 214.539 48.1604 214.595 48.1604 214.667Z" fill="#455A64"/>
<path d="M48.1603 211.929C48.1603 212.001 43.1623 212.057 36.9956 212.057C30.8288 212.057 25.8308 212.001 25.8308 211.929C25.8308 211.857 30.8288 211.801 36.9956 211.801C43.1623 211.801 48.1603 211.857 48.1603 211.929Z" fill="#455A64"/>
</svg>
